<svg xmlns="http://www.w3.org/2000/svg" viewBox="0 0 986 924" width="986" height="924" font-family="&quot;Inter&quot;, &quot;Segoe UI&quot;, system-ui, sans-serif">
<defs><filter id="shadow" x="-4%" y="-4%" width="108%" height="116%"><feDropShadow dx="0" dy="1" stdDeviation="2" flood-opacity="0.08"/></filter><filter id="glow" x="-10%" y="-10%" width="120%" height="120%"><feGaussianBlur stdDeviation="2" result="blur"/><feMerge><feMergeNode in="blur"/><feMergeNode in="SourceGraphic"/></feMerge></filter><marker id="arrow-dependency" viewBox="0 0 10 7" refX="10" refY="3.5" markerWidth="8" markerHeight="6" orient="auto-start-reverse"><polygon points="0 0, 10 3.5, 0 7" fill="#94a3b8"/></marker><marker id="arrow-containment" viewBox="0 0 10 7" refX="10" refY="3.5" markerWidth="8" markerHeight="6" orient="auto-start-reverse"><polygon points="0 0, 10 3.5, 0 7" fill="#64748b"/></marker><marker id="arrow-network_flow" viewBox="0 0 10 7" refX="10" refY="3.5" markerWidth="8" markerHeight="6" orient="auto-start-reverse"><polygon points="0 0, 10 3.5, 0 7" fill="#3b82f6"/></marker><marker id="arrow-iam_binding" viewBox="0 0 10 7" refX="10" refY="3.5" markerWidth="8" markerHeight="6" orient="auto-start-reverse"><polygon points="0 0, 10 3.5, 0 7" fill="#f97316"/></marker><marker id="arrow-data_flow" viewBox="0 0 10 7" refX="10" refY="3.5" markerWidth="8" markerHeight="6" orient="auto-start-reverse"><polygon points="0 0, 10 3.5, 0 7" fill="#22c55e"/></marker><marker id="arrow-boundary" viewBox="0 0 10 7" refX="10" refY="3.5" markerWidth="8" markerHeight="6" orient="auto-start-reverse"><polygon points="0 0, 10 3.5, 0 7" fill="#ef4444"/></marker></defs>
<rect x="0" y="0" width="986" height="44" fill="#1e293b" rx="0"/><text x="16" y="27" fill="#ffffff" font-size="14" font-weight="600">ThreatCode Threat Model</text><text x="970" y="27" fill="#94a3b8" font-size="11" text-anchor="end">34 resources · 19 threats  2026-03-02T18:41:44</text>
<g class="zone-dmz"><rect x="0" y="64" width="986" height="118" fill="#fff7ed" stroke="#fdba74" stroke-width="1"/><text x="12" y="88" fill="#fdba74" font-size="10" font-weight="600" letter-spacing="0.5">DMZ</text></g>
<g class="zone-private"><rect x="0" y="182" width="986" height="352" fill="#eff6ff" stroke="#93c5fd" stroke-width="1"/><text x="12" y="206" fill="#93c5fd" font-size="10" font-weight="600" letter-spacing="0.5">PRIVATE</text></g>
<g class="zone-data"><rect x="0" y="534" width="986" height="118" fill="#f0fdf4" stroke="#86efac" stroke-width="1"/><text x="12" y="558" fill="#86efac" font-size="10" font-weight="600" letter-spacing="0.5">DATA</text></g>
<g class="zone-management"><rect x="0" y="652" width="986" height="196" fill="#faf5ff" stroke="#c4b5fd" stroke-width="1"/><text x="12" y="676" fill="#c4b5fd" font-size="10" font-weight="600" letter-spacing="0.5">MANAGEMENT</text></g>
<path d="M347.0,256.0 C347.0,277.6 181.0,180.4 181.0,202.0" fill="none" stroke="#64748b" stroke-width="1.5" marker-end="url(#arrow-containment)" class="edge" data-type="containment" data-boundary="false"/>
<path d="M513.0,256.0 C513.0,277.6 181.0,180.4 181.0,202.0" fill="none" stroke="#64748b" stroke-width="1.5" marker-end="url(#arrow-containment)" class="edge" data-type="containment" data-boundary="false"/>
<path d="M181.0,138.0 C181.0,163.6 181.0,176.4 181.0,202.0" fill="none" stroke="#ef4444" stroke-width="2" marker-end="url(#arrow-boundary)" filter="url(#glow)" class="edge" data-type="containment" data-boundary="true"/>
<path d="M181.0,490.0 C181.0,605.2 181.0,86.8 181.0,202.0" fill="none" stroke="#64748b" stroke-width="1.5" marker-end="url(#arrow-containment)" class="edge" data-type="containment" data-boundary="false"/>
<path d="M347.0,490.0 C347.0,605.2 181.0,86.8 181.0,202.0" fill="none" stroke="#64748b" stroke-width="1.5" marker-end="url(#arrow-containment)" class="edge" data-type="containment" data-boundary="false"/>
<path d="M513.0,490.0 C513.0,605.2 181.0,86.8 181.0,202.0" fill="none" stroke="#64748b" stroke-width="1.5" marker-end="url(#arrow-containment)" class="edge" data-type="containment" data-boundary="false"/>
<g class="node" data-id="aws_subnet.public_a" filter="url(#shadow)">
<polygon points="181.0,84.0 246.0,111.0 181.0,138.0 116.0,111.0" fill="#ffffff" stroke="#cbd5e1" stroke-width="1.5"/>
<text x="124" y="98" fill="#94a3b8" font-size="8">network</text>
<text x="181" y="116" fill="#1e293b" font-size="11" font-weight="500" text-anchor="middle">public_a</text>
<circle cx="236" cy="80" r="7" fill="#eab308"/><text x="236" y="84" fill="#ffffff" font-size="9" font-weight="600" text-anchor="middle">1</text>
</g>
<g class="node" data-id="aws_lb.microservices_alb" filter="url(#shadow)">
<polygon points="347.0,84.0 412.0,111.0 347.0,138.0 282.0,111.0" fill="#ffffff" stroke="#cbd5e1" stroke-width="1.5"/>
<text x="290" y="98" fill="#94a3b8" font-size="8">network</text>
<text x="347" y="116" fill="#1e293b" font-size="11" font-weight="500" text-anchor="middle">microservices_alb</text>
</g>
<g class="node" data-id="aws_instance.bastion" filter="url(#shadow)">
<rect x="448" y="84" width="130" height="54" rx="6" ry="6" fill="#ffffff" stroke="#cbd5e1" stroke-width="1.5"/>
<text x="456" y="98" fill="#94a3b8" font-size="8">compute</text>
<text x="513" y="116" fill="#1e293b" font-size="11" font-weight="500" text-anchor="middle">bastion</text>
<circle cx="568" cy="80" r="7" fill="#f97316"/><text x="568" y="84" fill="#ffffff" font-size="9" font-weight="600" text-anchor="middle">3</text>
</g>
<g class="node" data-id="aws_vpc.microservices_vpc" filter="url(#shadow)">
<polygon points="181.0,202.0 246.0,229.0 181.0,256.0 116.0,229.0" fill="#ffffff" stroke="#cbd5e1" stroke-width="1.5"/>
<text x="124" y="216" fill="#94a3b8" font-size="8">network</text>
<text x="181" y="234" fill="#1e293b" font-size="11" font-weight="500" text-anchor="middle">microservices_vpc</text>
<circle cx="236" cy="198" r="7" fill="#eab308"/><text x="236" y="202" fill="#ffffff" font-size="9" font-weight="600" text-anchor="middle">1</text>
</g>
<g class="node" data-id="aws_subnet.private_app_a" filter="url(#shadow)">
<polygon points="347.0,202.0 412.0,229.0 347.0,256.0 282.0,229.0" fill="#ffffff" stroke="#cbd5e1" stroke-width="1.5"/>
<text x="290" y="216" fill="#94a3b8" font-size="8">network</text>
<text x="347" y="234" fill="#1e293b" font-size="11" font-weight="500" text-anchor="middle">private_app_a</text>
</g>
<g class="node" data-id="aws_subnet.private_app_b" filter="url(#shadow)">
<polygon points="513.0,202.0 578.0,229.0 513.0,256.0 448.0,229.0" fill="#ffffff" stroke="#cbd5e1" stroke-width="1.5"/>
<text x="456" y="216" fill="#94a3b8" font-size="8">network</text>
<text x="513" y="234" fill="#1e293b" font-size="11" font-weight="500" text-anchor="middle">private_app_b</text>
</g>
<g class="node" data-id="aws_ecs_cluster.microservices" filter="url(#shadow)">
<rect x="614" y="202" width="130" height="54" rx="6" ry="6" fill="#ffffff" stroke="#cbd5e1" stroke-width="1.5"/>
<text x="622" y="216" fill="#94a3b8" font-size="8">container</text>
<text x="679" y="234" fill="#1e293b" font-size="11" font-weight="500" text-anchor="middle">microservices</text>
</g>
<g class="node" data-id="aws_ecs_service.user_service" filter="url(#shadow)">
<rect x="780" y="202" width="130" height="54" rx="6" ry="6" fill="#ffffff" stroke="#cbd5e1" stroke-width="1.5"/>
<text x="788" y="216" fill="#94a3b8" font-size="8">container</text>
<text x="845" y="234" fill="#1e293b" font-size="11" font-weight="500" text-anchor="middle">user_service</text>
</g>
<g class="node" data-id="aws_ecs_task_definition.user_service" filter="url(#shadow)">
<rect x="116" y="280" width="130" height="54" rx="6" ry="6" fill="#ffffff" stroke="#cbd5e1" stroke-width="1.5"/>
<text x="124" y="294" fill="#94a3b8" font-size="8">container</text>
<text x="181" y="312" fill="#1e293b" font-size="11" font-weight="500" text-anchor="middle">user_service</text>
</g>
<g class="node" data-id="aws_ecs_service.payment_service" filter="url(#shadow)">
<rect x="282" y="280" width="130" height="54" rx="6" ry="6" fill="#ffffff" stroke="#cbd5e1" stroke-width="1.5"/>
<text x="290" y="294" fill="#94a3b8" font-size="8">container</text>
<text x="347" y="312" fill="#1e293b" font-size="11" font-weight="500" text-anchor="middle">payment_service</text>
</g>
<g class="node" data-id="aws_ecs_task_definition.payment_service" filter="url(#shadow)">
<rect x="448" y="280" width="130" height="54" rx="6" ry="6" fill="#ffffff" stroke="#cbd5e1" stroke-width="1.5"/>
<text x="456" y="294" fill="#94a3b8" font-size="8">container</text>
<text x="513" y="312" fill="#1e293b" font-size="11" font-weight="500" text-anchor="middle">payment_service</text>
</g>
<g class="node" data-id="aws_ecs_service.notification_service" filter="url(#shadow)">
<rect x="614" y="280" width="130" height="54" rx="6" ry="6" fill="#ffffff" stroke="#cbd5e1" stroke-width="1.5"/>
<text x="622" y="294" fill="#94a3b8" font-size="8">container</text>
<text x="679" y="312" fill="#1e293b" font-size="11" font-weight="500" text-anchor="middle">notification_service</text>
</g>
<g class="node" data-id="aws_ecs_task_definition.notification_service" filter="url(#shadow)">
<rect x="780" y="280" width="130" height="54" rx="6" ry="6" fill="#ffffff" stroke="#cbd5e1" stroke-width="1.5"/>
<text x="788" y="294" fill="#94a3b8" font-size="8">container</text>
<text x="845" y="312" fill="#1e293b" font-size="11" font-weight="500" text-anchor="middle">notification_service</text>
</g>
<g class="node" data-id="aws_db_instance.user_service_db" filter="url(#shadow)">
<rect x="116" y="364" width="130" height="42" fill="#ffffff" stroke="#cbd5e1" stroke-width="1.5"/><ellipse cx="181" cy="364" rx="65.0" ry="6" fill="#ffffff" stroke="#cbd5e1" stroke-width="1.5"/><ellipse cx="181" cy="406" rx="65.0" ry="6" fill="#ffffff" stroke="#cbd5e1" stroke-width="1.5"/>
<text x="124" y="372" fill="#94a3b8" font-size="8">database</text>
<text x="181" y="390" fill="#1e293b" font-size="11" font-weight="500" text-anchor="middle">user_service_db</text>
</g>
<g class="node" data-id="aws_db_instance.payment_service_db" filter="url(#shadow)">
<rect x="282" y="364" width="130" height="42" fill="#ffffff" stroke="#cbd5e1" stroke-width="1.5"/><ellipse cx="347" cy="364" rx="65.0" ry="6" fill="#ffffff" stroke="#cbd5e1" stroke-width="1.5"/><ellipse cx="347" cy="406" rx="65.0" ry="6" fill="#ffffff" stroke="#cbd5e1" stroke-width="1.5"/>
<text x="290" y="372" fill="#94a3b8" font-size="8">database</text>
<text x="347" y="390" fill="#1e293b" font-size="11" font-weight="500" text-anchor="middle">payment_service_db</text>
<circle cx="402" cy="354" r="7" fill="#f97316"/><text x="402" y="358" fill="#ffffff" font-size="9" font-weight="600" text-anchor="middle">2</text>
</g>
<g class="node" data-id="aws_ecr_repository.user_service" filter="url(#shadow)">
<rect x="448" y="358" width="130" height="54" rx="6" ry="6" fill="#ffffff" stroke="#cbd5e1" stroke-width="1.5"/>
<text x="456" y="372" fill="#94a3b8" font-size="8">unknown</text>
<text x="513" y="390" fill="#1e293b" font-size="11" font-weight="500" text-anchor="middle">user_service</text>
</g>
<g class="node" data-id="aws_ecr_repository.payment_service" filter="url(#shadow)">
<rect x="614" y="358" width="130" height="54" rx="6" ry="6" fill="#ffffff" stroke="#cbd5e1" stroke-width="1.5"/>
<text x="622" y="372" fill="#94a3b8" font-size="8">unknown</text>
<text x="679" y="390" fill="#1e293b" font-size="11" font-weight="500" text-anchor="middle">payment_service</text>
</g>
<g class="node" data-id="aws_ecr_repository.notification_service" filter="url(#shadow)">
<rect x="780" y="358" width="130" height="54" rx="6" ry="6" fill="#ffffff" stroke="#cbd5e1" stroke-width="1.5"/>
<text x="788" y="372" fill="#94a3b8" font-size="8">unknown</text>
<text x="845" y="390" fill="#1e293b" font-size="11" font-weight="500" text-anchor="middle">notification_service</text>
</g>
<g class="node" data-id="aws_security_group.alb_sg" filter="url(#shadow)">
<polygon points="181.0,436.0 246.0,463.0 181.0,490.0 116.0,463.0" fill="#ffffff" stroke="#cbd5e1" stroke-width="1.5"/>
<text x="124" y="450" fill="#94a3b8" font-size="8">network</text>
<text x="181" y="468" fill="#1e293b" font-size="11" font-weight="500" text-anchor="middle">alb_sg</text>
</g>
<g class="node" data-id="aws_security_group.ecs_user_service" filter="url(#shadow)">
<polygon points="347.0,436.0 412.0,463.0 347.0,490.0 282.0,463.0" fill="#ffffff" stroke="#cbd5e1" stroke-width="1.5"/>
<text x="290" y="450" fill="#94a3b8" font-size="8">network</text>
<text x="347" y="468" fill="#1e293b" font-size="11" font-weight="500" text-anchor="middle">ecs_user_service</text>
</g>
<g class="node" data-id="aws_security_group.bastion_sg" filter="url(#shadow)">
<polygon points="513.0,436.0 578.0,463.0 513.0,490.0 448.0,463.0" fill="#ffffff" stroke="#cbd5e1" stroke-width="1.5"/>
<text x="456" y="450" fill="#94a3b8" font-size="8">network</text>
<text x="513" y="468" fill="#1e293b" font-size="11" font-weight="500" text-anchor="middle">bastion_sg</text>
</g>
<g class="node" data-id="aws_elasticache_replication_group.session_cache" filter="url(#shadow)">
<rect x="116" y="560" width="130" height="42" fill="#ffffff" stroke="#cbd5e1" stroke-width="1.5"/><ellipse cx="181" cy="560" rx="65.0" ry="6" fill="#ffffff" stroke="#cbd5e1" stroke-width="1.5"/><ellipse cx="181" cy="602" rx="65.0" ry="6" fill="#ffffff" stroke="#cbd5e1" stroke-width="1.5"/>
<text x="124" y="568" fill="#94a3b8" font-size="8">database</text>
<text x="181" y="586" fill="#1e293b" font-size="11" font-weight="500" text-anchor="middle">session_cache</text>
</g>
<g class="node" data-id="aws_s3_bucket.artifact_store" filter="url(#shadow)">
<rect x="282" y="560" width="130" height="42" fill="#ffffff" stroke="#cbd5e1" stroke-width="1.5"/><ellipse cx="347" cy="560" rx="65.0" ry="6" fill="#ffffff" stroke="#cbd5e1" stroke-width="1.5"/><ellipse cx="347" cy="602" rx="65.0" ry="6" fill="#ffffff" stroke="#cbd5e1" stroke-width="1.5"/>
<text x="290" y="568" fill="#94a3b8" font-size="8">storage</text>
<text x="347" y="586" fill="#1e293b" font-size="11" font-weight="500" text-anchor="middle">artifact_store</text>
<circle cx="402" cy="550" r="7" fill="#f97316"/><text x="402" y="554" fill="#ffffff" font-size="9" font-weight="600" text-anchor="middle">3</text>
</g>
<g class="node" data-id="aws_s3_bucket_versioning.artifact_store" filter="url(#shadow)">
<rect x="448" y="560" width="130" height="42" fill="#ffffff" stroke="#cbd5e1" stroke-width="1.5"/><ellipse cx="513" cy="560" rx="65.0" ry="6" fill="#ffffff" stroke="#cbd5e1" stroke-width="1.5"/><ellipse cx="513" cy="602" rx="65.0" ry="6" fill="#ffffff" stroke="#cbd5e1" stroke-width="1.5"/>
<text x="456" y="568" fill="#94a3b8" font-size="8">storage</text>
<text x="513" y="586" fill="#1e293b" font-size="11" font-weight="500" text-anchor="middle">artifact_store</text>
<circle cx="568" cy="550" r="7" fill="#f97316"/><text x="568" y="554" fill="#ffffff" font-size="9" font-weight="600" text-anchor="middle">3</text>
</g>
<g class="node" data-id="aws_s3_bucket_server_side_encryption_configuration.artifact_store" filter="url(#shadow)">
<rect x="614" y="560" width="130" height="42" fill="#ffffff" stroke="#cbd5e1" stroke-width="1.5"/><ellipse cx="679" cy="560" rx="65.0" ry="6" fill="#ffffff" stroke="#cbd5e1" stroke-width="1.5"/><ellipse cx="679" cy="602" rx="65.0" ry="6" fill="#ffffff" stroke="#cbd5e1" stroke-width="1.5"/>
<text x="622" y="568" fill="#94a3b8" font-size="8">storage</text>
<text x="679" y="586" fill="#1e293b" font-size="11" font-weight="500" text-anchor="middle">artifact_store</text>
<circle cx="734" cy="550" r="7" fill="#f97316"/><text x="734" y="554" fill="#ffffff" font-size="9" font-weight="600" text-anchor="middle">3</text>
</g>
<g class="node" data-id="aws_s3_bucket_public_access_block.artifact_store" filter="url(#shadow)">
<rect x="780" y="560" width="130" height="42" fill="#ffffff" stroke="#cbd5e1" stroke-width="1.5"/><ellipse cx="845" cy="560" rx="65.0" ry="6" fill="#ffffff" stroke="#cbd5e1" stroke-width="1.5"/><ellipse cx="845" cy="602" rx="65.0" ry="6" fill="#ffffff" stroke="#cbd5e1" stroke-width="1.5"/>
<text x="788" y="568" fill="#94a3b8" font-size="8">storage</text>
<text x="845" y="586" fill="#1e293b" font-size="11" font-weight="500" text-anchor="middle">artifact_store</text>
<circle cx="900" cy="550" r="7" fill="#f97316"/><text x="900" y="554" fill="#ffffff" font-size="9" font-weight="600" text-anchor="middle">3</text>
</g>
<g class="node" data-id="aws_iam_role.ecs_execution_role" filter="url(#shadow)">
<rect x="116" y="672" width="130" height="54" fill="#ffffff" stroke="#cbd5e1" stroke-width="1.5"/><rect x="119" y="675" width="124" height="48" fill="none" stroke="#cbd5e1" stroke-width="1"/>
<text x="124" y="686" fill="#94a3b8" font-size="8">iam</text>
<text x="181" y="704" fill="#1e293b" font-size="11" font-weight="500" text-anchor="middle">ecs_execution_role</text>
</g>
<g class="node" data-id="aws_iam_role.user_service_task_role" filter="url(#shadow)">
<rect x="282" y="672" width="130" height="54" fill="#ffffff" stroke="#cbd5e1" stroke-width="1.5"/><rect x="285" y="675" width="124" height="48" fill="none" stroke="#cbd5e1" stroke-width="1"/>
<text x="290" y="686" fill="#94a3b8" font-size="8">iam</text>
<text x="347" y="704" fill="#1e293b" font-size="11" font-weight="500" text-anchor="middle">user_service_task_role</text>
</g>
<g class="node" data-id="aws_iam_role.payment_service_task_role" filter="url(#shadow)">
<rect x="448" y="672" width="130" height="54" fill="#ffffff" stroke="#cbd5e1" stroke-width="1.5"/><rect x="451" y="675" width="124" height="48" fill="none" stroke="#cbd5e1" stroke-width="1"/>
<text x="456" y="686" fill="#94a3b8" font-size="8">iam</text>
<text x="513" y="704" fill="#1e293b" font-size="11" font-weight="500" text-anchor="middle">payment_service_task_role</text>
</g>
<g class="node" data-id="aws_iam_role.notification_service_task_role" filter="url(#shadow)">
<rect x="614" y="672" width="130" height="54" fill="#ffffff" stroke="#cbd5e1" stroke-width="1.5"/><rect x="617" y="675" width="124" height="48" fill="none" stroke="#cbd5e1" stroke-width="1"/>
<text x="622" y="686" fill="#94a3b8" font-size="8">iam</text>
<text x="679" y="704" fill="#1e293b" font-size="11" font-weight="500" text-anchor="middle">notification_service_task_role</text>
</g>
<g class="node" data-id="aws_cloudwatch_log_group.user_service" filter="url(#shadow)">
<rect x="780" y="672" width="130" height="54" rx="6" ry="6" fill="#ffffff" stroke="#cbd5e1" stroke-width="1.5"/>
<text x="788" y="686" fill="#94a3b8" font-size="8">monitoring</text>
<text x="845" y="704" fill="#1e293b" font-size="11" font-weight="500" text-anchor="middle">user_service</text>
</g>
<g class="node" data-id="aws_cloudwatch_log_group.payment_service" filter="url(#shadow)">
<rect x="116" y="750" width="130" height="54" rx="6" ry="6" fill="#ffffff" stroke="#cbd5e1" stroke-width="1.5"/>
<text x="124" y="764" fill="#94a3b8" font-size="8">monitoring</text>
<text x="181" y="782" fill="#1e293b" font-size="11" font-weight="500" text-anchor="middle">payment_service</text>
</g>
<g class="node" data-id="aws_cloudwatch_log_group.notification_service" filter="url(#shadow)">
<rect x="282" y="750" width="130" height="54" rx="6" ry="6" fill="#ffffff" stroke="#cbd5e1" stroke-width="1.5"/>
<text x="290" y="764" fill="#94a3b8" font-size="8">monitoring</text>
<text x="347" y="782" fill="#1e293b" font-size="11" font-weight="500" text-anchor="middle">notification_service</text>
</g>
<g class="node" data-id="aws_cloudwatch_metric_alarm.user_service_cpu" filter="url(#shadow)">
<rect x="448" y="750" width="130" height="54" rx="6" ry="6" fill="#ffffff" stroke="#cbd5e1" stroke-width="1.5"/>
<text x="456" y="764" fill="#94a3b8" font-size="8">monitoring</text>
<text x="513" y="782" fill="#1e293b" font-size="11" font-weight="500" text-anchor="middle">user_service_cpu</text>
</g>
<g class="legend"><rect x="0" y="868" width="986" height="56" fill="#f8fafc"/><line x1="0" y1="868" x2="986" y2="868" stroke="#e2e8f0" stroke-width="1"/><text x="16" y="888" fill="#3b82f6" font-size="9" font-weight="500">◇ data_flow</text><text x="106" y="888" fill="#64748b" font-size="9" font-weight="500">╭╮ process</text><text x="196" y="888" fill="#22c55e" font-size="9" font-weight="500">┃┃ data_store</text><text x="286" y="888" fill="#f97316" font-size="9" font-weight="500">┌┐ entity</text><circle cx="20" cy="905" r="4" fill="#ef4444"/><text x="28" y="908" fill="#64748b" font-size="9">critical</text><circle cx="92" cy="905" r="4" fill="#f97316"/><text x="100" y="908" fill="#64748b" font-size="9">high</text><circle cx="164" cy="905" r="4" fill="#eab308"/><text x="172" y="908" fill="#64748b" font-size="9">medium</text><circle cx="236" cy="905" r="4" fill="#3b82f6"/><text x="244" y="908" fill="#64748b" font-size="9">low</text><text x="970" y="888" fill="#cbd5e1" font-size="9" text-anchor="end">Generated by ThreatCode</text></g>
</svg>