<svg xmlns="http://www.w3.org/2000/svg" viewBox="0 0 986 1042" width="986" height="1042" font-family="&quot;Inter&quot;, &quot;Segoe UI&quot;, system-ui, sans-serif">
<defs><filter id="shadow" x="-4%" y="-4%" width="108%" height="116%"><feDropShadow dx="0" dy="1" stdDeviation="2" flood-opacity="0.08"/></filter><filter id="glow" x="-10%" y="-10%" width="120%" height="120%"><feGaussianBlur stdDeviation="2" result="blur"/><feMerge><feMergeNode in="blur"/><feMergeNode in="SourceGraphic"/></feMerge></filter><marker id="arrow-dependency" viewBox="0 0 10 7" refX="10" refY="3.5" markerWidth="8" markerHeight="6" orient="auto-start-reverse"><polygon points="0 0, 10 3.5, 0 7" fill="#94a3b8"/></marker><marker id="arrow-containment" viewBox="0 0 10 7" refX="10" refY="3.5" markerWidth="8" markerHeight="6" orient="auto-start-reverse"><polygon points="0 0, 10 3.5, 0 7" fill="#64748b"/></marker><marker id="arrow-network_flow" viewBox="0 0 10 7" refX="10" refY="3.5" markerWidth="8" markerHeight="6" orient="auto-start-reverse"><polygon points="0 0, 10 3.5, 0 7" fill="#3b82f6"/></marker><marker id="arrow-iam_binding" viewBox="0 0 10 7" refX="10" refY="3.5" markerWidth="8" markerHeight="6" orient="auto-start-reverse"><polygon points="0 0, 10 3.5, 0 7" fill="#f97316"/></marker><marker id="arrow-data_flow" viewBox="0 0 10 7" refX="10" refY="3.5" markerWidth="8" markerHeight="6" orient="auto-start-reverse"><polygon points="0 0, 10 3.5, 0 7" fill="#22c55e"/></marker><marker id="arrow-boundary" viewBox="0 0 10 7" refX="10" refY="3.5" markerWidth="8" markerHeight="6" orient="auto-start-reverse"><polygon points="0 0, 10 3.5, 0 7" fill="#ef4444"/></marker></defs>
<rect x="0" y="0" width="986" height="44" fill="#1e293b" rx="0"/><text x="16" y="27" fill="#ffffff" font-size="14" font-weight="600">ThreatCode Threat Model</text><text x="970" y="27" fill="#94a3b8" font-size="11" text-anchor="end">38 resources · 19 threats  2026-03-02T18:41:49</text>
<g class="zone-internet"><rect x="0" y="64" width="986" height="118" fill="#fef2f2" stroke="#fca5a5" stroke-width="1"/><text x="12" y="88" fill="#fca5a5" font-size="10" font-weight="600" letter-spacing="0.5">INTERNET</text></g>
<g class="zone-dmz"><rect x="0" y="182" width="986" height="118" fill="#fff7ed" stroke="#fdba74" stroke-width="1"/><text x="12" y="206" fill="#fdba74" font-size="10" font-weight="600" letter-spacing="0.5">DMZ</text></g>
<g class="zone-private"><rect x="0" y="300" width="986" height="430" fill="#eff6ff" stroke="#93c5fd" stroke-width="1"/><text x="12" y="324" fill="#93c5fd" font-size="10" font-weight="600" letter-spacing="0.5">PRIVATE</text></g>
<g class="zone-data"><rect x="0" y="730" width="986" height="118" fill="#f0fdf4" stroke="#86efac" stroke-width="1"/><text x="12" y="754" fill="#86efac" font-size="10" font-weight="600" letter-spacing="0.5">DATA</text></g>
<g class="zone-management"><rect x="0" y="848" width="986" height="118" fill="#faf5ff" stroke="#c4b5fd" stroke-width="1"/><text x="12" y="872" fill="#c4b5fd" font-size="10" font-weight="600" letter-spacing="0.5">MANAGEMENT</text></g>
<path d="M181.0,256.0 C181.0,281.6 181.0,294.4 181.0,320.0" fill="none" stroke="#ef4444" stroke-width="2" marker-end="url(#arrow-boundary)" filter="url(#glow)" class="edge" data-type="containment" data-boundary="true"/>
<path d="M347.0,256.0 C347.0,281.6 181.0,294.4 181.0,320.0" fill="none" stroke="#ef4444" stroke-width="2" marker-end="url(#arrow-boundary)" filter="url(#glow)" class="edge" data-type="containment" data-boundary="true"/>
<path d="M347.0,374.0 C347.0,395.6 181.0,298.4 181.0,320.0" fill="none" stroke="#64748b" stroke-width="1.5" marker-end="url(#arrow-containment)" class="edge" data-type="containment" data-boundary="false"/>
<path d="M513.0,374.0 C513.0,395.6 181.0,298.4 181.0,320.0" fill="none" stroke="#64748b" stroke-width="1.5" marker-end="url(#arrow-containment)" class="edge" data-type="containment" data-boundary="false"/>
<path d="M679.0,374.0 C679.0,395.6 181.0,298.4 181.0,320.0" fill="none" stroke="#64748b" stroke-width="1.5" marker-end="url(#arrow-containment)" class="edge" data-type="containment" data-boundary="false"/>
<path d="M845.0,374.0 C845.0,395.6 181.0,298.4 181.0,320.0" fill="none" stroke="#64748b" stroke-width="1.5" marker-end="url(#arrow-containment)" class="edge" data-type="containment" data-boundary="false"/>
<path d="M181.0,138.0 C181.0,210.8 181.0,247.2 181.0,320.0" fill="none" stroke="#ef4444" stroke-width="2" marker-end="url(#arrow-boundary)" filter="url(#glow)" class="edge" data-type="containment" data-boundary="true"/>
<path d="M513.0,452.0 C513.0,504.8 181.0,267.2 181.0,320.0" fill="none" stroke="#64748b" stroke-width="1.5" marker-end="url(#arrow-containment)" class="edge" data-type="containment" data-boundary="false"/>
<path d="M347.0,530.0 C347.0,614.0 181.0,236.0 181.0,320.0" fill="none" stroke="#64748b" stroke-width="1.5" marker-end="url(#arrow-containment)" class="edge" data-type="containment" data-boundary="false"/>
<path d="M513.0,530.0 C513.0,614.0 181.0,236.0 181.0,320.0" fill="none" stroke="#64748b" stroke-width="1.5" marker-end="url(#arrow-containment)" class="edge" data-type="containment" data-boundary="false"/>
<path d="M181.0,608.0 C181.0,723.2 181.0,204.8 181.0,320.0" fill="none" stroke="#64748b" stroke-width="1.5" marker-end="url(#arrow-containment)" class="edge" data-type="containment" data-boundary="false"/>
<path d="M679.0,608.0 C679.0,723.2 181.0,204.8 181.0,320.0" fill="none" stroke="#64748b" stroke-width="1.5" marker-end="url(#arrow-containment)" class="edge" data-type="containment" data-boundary="false"/>
<path d="M347.0,686.0 C347.0,832.4 181.0,173.6 181.0,320.0" fill="none" stroke="#64748b" stroke-width="1.5" marker-end="url(#arrow-containment)" class="edge" data-type="containment" data-boundary="false"/>
<path d="M513.0,686.0 C513.0,832.4 181.0,173.6 181.0,320.0" fill="none" stroke="#64748b" stroke-width="1.5" marker-end="url(#arrow-containment)" class="edge" data-type="containment" data-boundary="false"/>
<path d="M679.0,686.0 C679.0,832.4 181.0,173.6 181.0,320.0" fill="none" stroke="#64748b" stroke-width="1.5" marker-end="url(#arrow-containment)" class="edge" data-type="containment" data-boundary="false"/>
<g class="node" data-id="aws_internet_gateway.hub" filter="url(#shadow)">
<polygon points="181.0,84.0 246.0,111.0 181.0,138.0 116.0,111.0" fill="#ffffff" stroke="#cbd5e1" stroke-width="1.5"/>
<text x="124" y="98" fill="#94a3b8" font-size="8">network</text>
<text x="181" y="116" fill="#1e293b" font-size="11" font-weight="500" text-anchor="middle">hub</text>
<circle cx="236" cy="80" r="7" fill="#f97316"/><text x="236" y="84" fill="#ffffff" font-size="9" font-weight="600" text-anchor="middle">1</text>
</g>
<g class="node" data-id="aws_subnet.dmz_a" filter="url(#shadow)">
<polygon points="181.0,202.0 246.0,229.0 181.0,256.0 116.0,229.0" fill="#ffffff" stroke="#cbd5e1" stroke-width="1.5"/>
<text x="124" y="216" fill="#94a3b8" font-size="8">network</text>
<text x="181" y="234" fill="#1e293b" font-size="11" font-weight="500" text-anchor="middle">dmz_a</text>
<circle cx="236" cy="198" r="7" fill="#eab308"/><text x="236" y="202" fill="#ffffff" font-size="9" font-weight="600" text-anchor="middle">1</text>
</g>
<g class="node" data-id="aws_subnet.dmz_b" filter="url(#shadow)">
<polygon points="347.0,202.0 412.0,229.0 347.0,256.0 282.0,229.0" fill="#ffffff" stroke="#cbd5e1" stroke-width="1.5"/>
<text x="290" y="216" fill="#94a3b8" font-size="8">network</text>
<text x="347" y="234" fill="#1e293b" font-size="11" font-weight="500" text-anchor="middle">dmz_b</text>
<circle cx="402" cy="198" r="7" fill="#eab308"/><text x="402" y="202" fill="#ffffff" font-size="9" font-weight="600" text-anchor="middle">1</text>
</g>
<g class="node" data-id="aws_instance.vpn_concentrator" filter="url(#shadow)">
<rect x="448" y="202" width="130" height="54" rx="6" ry="6" fill="#ffffff" stroke="#cbd5e1" stroke-width="1.5"/>
<text x="456" y="216" fill="#94a3b8" font-size="8">compute</text>
<text x="513" y="234" fill="#1e293b" font-size="11" font-weight="500" text-anchor="middle">vpn_concentrator</text>
<circle cx="568" cy="198" r="7" fill="#f97316"/><text x="568" y="202" fill="#ffffff" font-size="9" font-weight="600" text-anchor="middle">3</text>
</g>
<g class="node" data-id="aws_vpc.hub" filter="url(#shadow)">
<polygon points="181.0,320.0 246.0,347.0 181.0,374.0 116.0,347.0" fill="#ffffff" stroke="#cbd5e1" stroke-width="1.5"/>
<text x="124" y="334" fill="#94a3b8" font-size="8">network</text>
<text x="181" y="352" fill="#1e293b" font-size="11" font-weight="500" text-anchor="middle">hub</text>
<circle cx="236" cy="316" r="7" fill="#eab308"/><text x="236" y="320" fill="#ffffff" font-size="9" font-weight="600" text-anchor="middle">1</text>
</g>
<g class="node" data-id="aws_subnet.app_a" filter="url(#shadow)">
<polygon points="347.0,320.0 412.0,347.0 347.0,374.0 282.0,347.0" fill="#ffffff" stroke="#cbd5e1" stroke-width="1.5"/>
<text x="290" y="334" fill="#94a3b8" font-size="8">network</text>
<text x="347" y="352" fill="#1e293b" font-size="11" font-weight="500" text-anchor="middle">app_a</text>
</g>
<g class="node" data-id="aws_subnet.app_b" filter="url(#shadow)">
<polygon points="513.0,320.0 578.0,347.0 513.0,374.0 448.0,347.0" fill="#ffffff" stroke="#cbd5e1" stroke-width="1.5"/>
<text x="456" y="334" fill="#94a3b8" font-size="8">network</text>
<text x="513" y="352" fill="#1e293b" font-size="11" font-weight="500" text-anchor="middle">app_b</text>
</g>
<g class="node" data-id="aws_subnet.data_a" filter="url(#shadow)">
<polygon points="679.0,320.0 744.0,347.0 679.0,374.0 614.0,347.0" fill="#ffffff" stroke="#cbd5e1" stroke-width="1.5"/>
<text x="622" y="334" fill="#94a3b8" font-size="8">network</text>
<text x="679" y="352" fill="#1e293b" font-size="11" font-weight="500" text-anchor="middle">data_a</text>
</g>
<g class="node" data-id="aws_subnet.data_b" filter="url(#shadow)">
<polygon points="845.0,320.0 910.0,347.0 845.0,374.0 780.0,347.0" fill="#ffffff" stroke="#cbd5e1" stroke-width="1.5"/>
<text x="788" y="334" fill="#94a3b8" font-size="8">network</text>
<text x="845" y="352" fill="#1e293b" font-size="11" font-weight="500" text-anchor="middle">data_b</text>
</g>
<g class="node" data-id="aws_eip.nat_a" filter="url(#shadow)">
<polygon points="181.0,398.0 246.0,425.0 181.0,452.0 116.0,425.0" fill="#ffffff" stroke="#cbd5e1" stroke-width="1.5"/>
<text x="124" y="412" fill="#94a3b8" font-size="8">network</text>
<text x="181" y="430" fill="#1e293b" font-size="11" font-weight="500" text-anchor="middle">nat_a</text>
</g>
<g class="node" data-id="aws_nat_gateway.a" filter="url(#shadow)">
<polygon points="347.0,398.0 412.0,425.0 347.0,452.0 282.0,425.0" fill="#ffffff" stroke="#cbd5e1" stroke-width="1.5"/>
<text x="290" y="412" fill="#94a3b8" font-size="8">network</text>
<text x="347" y="430" fill="#1e293b" font-size="11" font-weight="500" text-anchor="middle">a</text>
</g>
<g class="node" data-id="aws_vpn_gateway.hub" filter="url(#shadow)">
<rect x="448" y="398" width="130" height="54" rx="6" ry="6" fill="#ffffff" stroke="#cbd5e1" stroke-width="1.5"/>
<text x="456" y="412" fill="#94a3b8" font-size="8">unknown</text>
<text x="513" y="430" fill="#1e293b" font-size="11" font-weight="500" text-anchor="middle">hub</text>
</g>
<g class="node" data-id="aws_customer_gateway.ashburn_dc" filter="url(#shadow)">
<rect x="614" y="398" width="130" height="54" rx="6" ry="6" fill="#ffffff" stroke="#cbd5e1" stroke-width="1.5"/>
<text x="622" y="412" fill="#94a3b8" font-size="8">unknown</text>
<text x="679" y="430" fill="#1e293b" font-size="11" font-weight="500" text-anchor="middle">ashburn_dc</text>
</g>
<g class="node" data-id="aws_vpn_connection.ashburn_primary" filter="url(#shadow)">
<rect x="780" y="398" width="130" height="54" rx="6" ry="6" fill="#ffffff" stroke="#cbd5e1" stroke-width="1.5"/>
<text x="788" y="412" fill="#94a3b8" font-size="8">unknown</text>
<text x="845" y="430" fill="#1e293b" font-size="11" font-weight="500" text-anchor="middle">ashburn_primary</text>
</g>
<g class="node" data-id="aws_ec2_transit_gateway.hub" filter="url(#shadow)">
<rect x="116" y="476" width="130" height="54" rx="6" ry="6" fill="#ffffff" stroke="#cbd5e1" stroke-width="1.5"/>
<text x="124" y="490" fill="#94a3b8" font-size="8">unknown</text>
<text x="181" y="508" fill="#1e293b" font-size="11" font-weight="500" text-anchor="middle">hub</text>
</g>
<g class="node" data-id="aws_ec2_transit_gateway_vpc_attachment.hub" filter="url(#shadow)">
<rect x="282" y="476" width="130" height="54" rx="6" ry="6" fill="#ffffff" stroke="#cbd5e1" stroke-width="1.5"/>
<text x="290" y="490" fill="#94a3b8" font-size="8">unknown</text>
<text x="347" y="508" fill="#1e293b" font-size="11" font-weight="500" text-anchor="middle">hub</text>
</g>
<g class="node" data-id="aws_route_table.dmz" filter="url(#shadow)">
<polygon points="513.0,476.0 578.0,503.0 513.0,530.0 448.0,503.0" fill="#ffffff" stroke="#cbd5e1" stroke-width="1.5"/>
<text x="456" y="490" fill="#94a3b8" font-size="8">network</text>
<text x="513" y="508" fill="#1e293b" font-size="11" font-weight="500" text-anchor="middle">dmz</text>
</g>
<g class="node" data-id="aws_route_table_association.dmz_a" filter="url(#shadow)">
<polygon points="679.0,476.0 744.0,503.0 679.0,530.0 614.0,503.0" fill="#ffffff" stroke="#cbd5e1" stroke-width="1.5"/>
<text x="622" y="490" fill="#94a3b8" font-size="8">network</text>
<text x="679" y="508" fill="#1e293b" font-size="11" font-weight="500" text-anchor="middle">dmz_a</text>
</g>
<g class="node" data-id="aws_route_table_association.dmz_b" filter="url(#shadow)">
<polygon points="845.0,476.0 910.0,503.0 845.0,530.0 780.0,503.0" fill="#ffffff" stroke="#cbd5e1" stroke-width="1.5"/>
<text x="788" y="490" fill="#94a3b8" font-size="8">network</text>
<text x="845" y="508" fill="#1e293b" font-size="11" font-weight="500" text-anchor="middle">dmz_b</text>
</g>
<g class="node" data-id="aws_route_table.app" filter="url(#shadow)">
<polygon points="181.0,554.0 246.0,581.0 181.0,608.0 116.0,581.0" fill="#ffffff" stroke="#cbd5e1" stroke-width="1.5"/>
<text x="124" y="568" fill="#94a3b8" font-size="8">network</text>
<text x="181" y="586" fill="#1e293b" font-size="11" font-weight="500" text-anchor="middle">app</text>
</g>
<g class="node" data-id="aws_route_table_association.app_a" filter="url(#shadow)">
<polygon points="347.0,554.0 412.0,581.0 347.0,608.0 282.0,581.0" fill="#ffffff" stroke="#cbd5e1" stroke-width="1.5"/>
<text x="290" y="568" fill="#94a3b8" font-size="8">network</text>
<text x="347" y="586" fill="#1e293b" font-size="11" font-weight="500" text-anchor="middle">app_a</text>
</g>
<g class="node" data-id="aws_route_table_association.app_b" filter="url(#shadow)">
<polygon points="513.0,554.0 578.0,581.0 513.0,608.0 448.0,581.0" fill="#ffffff" stroke="#cbd5e1" stroke-width="1.5"/>
<text x="456" y="568" fill="#94a3b8" font-size="8">network</text>
<text x="513" y="586" fill="#1e293b" font-size="11" font-weight="500" text-anchor="middle">app_b</text>
</g>
<g class="node" data-id="aws_route_table.data" filter="url(#shadow)">
<polygon points="679.0,554.0 744.0,581.0 679.0,608.0 614.0,581.0" fill="#ffffff" stroke="#cbd5e1" stroke-width="1.5"/>
<text x="622" y="568" fill="#94a3b8" font-size="8">network</text>
<text x="679" y="586" fill="#1e293b" font-size="11" font-weight="500" text-anchor="middle">data</text>
</g>
<g class="node" data-id="aws_route_table_association.data_a" filter="url(#shadow)">
<polygon points="845.0,554.0 910.0,581.0 845.0,608.0 780.0,581.0" fill="#ffffff" stroke="#cbd5e1" stroke-width="1.5"/>
<text x="788" y="568" fill="#94a3b8" font-size="8">network</text>
<text x="845" y="586" fill="#1e293b" font-size="11" font-weight="500" text-anchor="middle">data_a</text>
</g>
<g class="node" data-id="aws_route_table_association.data_b" filter="url(#shadow)">
<polygon points="181.0,632.0 246.0,659.0 181.0,686.0 116.0,659.0" fill="#ffffff" stroke="#cbd5e1" stroke-width="1.5"/>
<text x="124" y="646" fill="#94a3b8" font-size="8">network</text>
<text x="181" y="664" fill="#1e293b" font-size="11" font-weight="500" text-anchor="middle">data_b</text>
</g>
<g class="node" data-id="aws_security_group.vpn_concentrator" filter="url(#shadow)">
<polygon points="347.0,632.0 412.0,659.0 347.0,686.0 282.0,659.0" fill="#ffffff" stroke="#cbd5e1" stroke-width="1.5"/>
<text x="290" y="646" fill="#94a3b8" font-size="8">network</text>
<text x="347" y="664" fill="#1e293b" font-size="11" font-weight="500" text-anchor="middle">vpn_concentrator</text>
</g>
<g class="node" data-id="aws_security_group.temp_debug" filter="url(#shadow)">
<polygon points="513.0,632.0 578.0,659.0 513.0,686.0 448.0,659.0" fill="#ffffff" stroke="#cbd5e1" stroke-width="1.5"/>
<text x="456" y="646" fill="#94a3b8" font-size="8">network</text>
<text x="513" y="664" fill="#1e293b" font-size="11" font-weight="500" text-anchor="middle">temp_debug</text>
</g>
<g class="node" data-id="aws_security_group.internal_proxy" filter="url(#shadow)">
<polygon points="679.0,632.0 744.0,659.0 679.0,686.0 614.0,659.0" fill="#ffffff" stroke="#cbd5e1" stroke-width="1.5"/>
<text x="622" y="646" fill="#94a3b8" font-size="8">network</text>
<text x="679" y="664" fill="#1e293b" font-size="11" font-weight="500" text-anchor="middle">internal_proxy</text>
</g>
<g class="node" data-id="aws_instance.internal_proxy" filter="url(#shadow)">
<rect x="780" y="632" width="130" height="54" rx="6" ry="6" fill="#ffffff" stroke="#cbd5e1" stroke-width="1.5"/>
<text x="788" y="646" fill="#94a3b8" font-size="8">compute</text>
<text x="845" y="664" fill="#1e293b" font-size="11" font-weight="500" text-anchor="middle">internal_proxy</text>
</g>
<g class="node" data-id="aws_s3_bucket.vpn_logs" filter="url(#shadow)">
<rect x="116" y="756" width="130" height="42" fill="#ffffff" stroke="#cbd5e1" stroke-width="1.5"/><ellipse cx="181" cy="756" rx="65.0" ry="6" fill="#ffffff" stroke="#cbd5e1" stroke-width="1.5"/><ellipse cx="181" cy="798" rx="65.0" ry="6" fill="#ffffff" stroke="#cbd5e1" stroke-width="1.5"/>
<text x="124" y="764" fill="#94a3b8" font-size="8">storage</text>
<text x="181" y="782" fill="#1e293b" font-size="11" font-weight="500" text-anchor="middle">vpn_logs</text>
<circle cx="236" cy="746" r="7" fill="#f97316"/><text x="236" y="750" fill="#ffffff" font-size="9" font-weight="600" text-anchor="middle">3</text>
</g>
<g class="node" data-id="aws_s3_bucket_versioning.vpn_logs" filter="url(#shadow)">
<rect x="282" y="756" width="130" height="42" fill="#ffffff" stroke="#cbd5e1" stroke-width="1.5"/><ellipse cx="347" cy="756" rx="65.0" ry="6" fill="#ffffff" stroke="#cbd5e1" stroke-width="1.5"/><ellipse cx="347" cy="798" rx="65.0" ry="6" fill="#ffffff" stroke="#cbd5e1" stroke-width="1.5"/>
<text x="290" y="764" fill="#94a3b8" font-size="8">storage</text>
<text x="347" y="782" fill="#1e293b" font-size="11" font-weight="500" text-anchor="middle">vpn_logs</text>
<circle cx="402" cy="746" r="7" fill="#f97316"/><text x="402" y="750" fill="#ffffff" font-size="9" font-weight="600" text-anchor="middle">3</text>
</g>
<g class="node" data-id="aws_s3_bucket_lifecycle_configuration.vpn_logs" filter="url(#shadow)">
<rect x="448" y="756" width="130" height="42" fill="#ffffff" stroke="#cbd5e1" stroke-width="1.5"/><ellipse cx="513" cy="756" rx="65.0" ry="6" fill="#ffffff" stroke="#cbd5e1" stroke-width="1.5"/><ellipse cx="513" cy="798" rx="65.0" ry="6" fill="#ffffff" stroke="#cbd5e1" stroke-width="1.5"/>
<text x="456" y="764" fill="#94a3b8" font-size="8">storage</text>
<text x="513" y="782" fill="#1e293b" font-size="11" font-weight="500" text-anchor="middle">vpn_logs</text>
<circle cx="568" cy="746" r="7" fill="#f97316"/><text x="568" y="750" fill="#ffffff" font-size="9" font-weight="600" text-anchor="middle">3</text>
</g>
<g class="node" data-id="aws_s3_bucket_public_access_block.vpn_logs" filter="url(#shadow)">
<rect x="614" y="756" width="130" height="42" fill="#ffffff" stroke="#cbd5e1" stroke-width="1.5"/><ellipse cx="679" cy="756" rx="65.0" ry="6" fill="#ffffff" stroke="#cbd5e1" stroke-width="1.5"/><ellipse cx="679" cy="798" rx="65.0" ry="6" fill="#ffffff" stroke="#cbd5e1" stroke-width="1.5"/>
<text x="622" y="764" fill="#94a3b8" font-size="8">storage</text>
<text x="679" y="782" fill="#1e293b" font-size="11" font-weight="500" text-anchor="middle">vpn_logs</text>
<circle cx="734" cy="746" r="7" fill="#f97316"/><text x="734" y="750" fill="#ffffff" font-size="9" font-weight="600" text-anchor="middle">3</text>
</g>
<g class="node" data-id="aws_iam_role.vpn_mgmt" filter="url(#shadow)">
<rect x="116" y="868" width="130" height="54" fill="#ffffff" stroke="#cbd5e1" stroke-width="1.5"/><rect x="119" y="871" width="124" height="48" fill="none" stroke="#cbd5e1" stroke-width="1"/>
<text x="124" y="882" fill="#94a3b8" font-size="8">iam</text>
<text x="181" y="900" fill="#1e293b" font-size="11" font-weight="500" text-anchor="middle">vpn_mgmt</text>
</g>
<g class="node" data-id="aws_iam_role_policy.vpn_mgmt" filter="url(#shadow)">
<rect x="282" y="868" width="130" height="54" fill="#ffffff" stroke="#cbd5e1" stroke-width="1.5"/><rect x="285" y="871" width="124" height="48" fill="none" stroke="#cbd5e1" stroke-width="1"/>
<text x="290" y="882" fill="#94a3b8" font-size="8">iam</text>
<text x="347" y="900" fill="#1e293b" font-size="11" font-weight="500" text-anchor="middle">vpn_mgmt</text>
</g>
<g class="node" data-id="aws_iam_instance_profile.vpn_mgmt" filter="url(#shadow)">
<rect x="448" y="868" width="130" height="54" fill="#ffffff" stroke="#cbd5e1" stroke-width="1.5"/><rect x="451" y="871" width="124" height="48" fill="none" stroke="#cbd5e1" stroke-width="1"/>
<text x="456" y="882" fill="#94a3b8" font-size="8">iam</text>
<text x="513" y="900" fill="#1e293b" font-size="11" font-weight="500" text-anchor="middle">vpn_mgmt</text>
</g>
<g class="node" data-id="aws_cloudwatch_log_group.vpn" filter="url(#shadow)">
<rect x="614" y="868" width="130" height="54" rx="6" ry="6" fill="#ffffff" stroke="#cbd5e1" stroke-width="1.5"/>
<text x="622" y="882" fill="#94a3b8" font-size="8">monitoring</text>
<text x="679" y="900" fill="#1e293b" font-size="11" font-weight="500" text-anchor="middle">vpn</text>
</g>
<g class="node" data-id="aws_cloudwatch_metric_alarm.vpn_tunnel_down" filter="url(#shadow)">
<rect x="780" y="868" width="130" height="54" rx="6" ry="6" fill="#ffffff" stroke="#cbd5e1" stroke-width="1.5"/>
<text x="788" y="882" fill="#94a3b8" font-size="8">monitoring</text>
<text x="845" y="900" fill="#1e293b" font-size="11" font-weight="500" text-anchor="middle">vpn_tunnel_down</text>
</g>
<g class="legend"><rect x="0" y="986" width="986" height="56" fill="#f8fafc"/><line x1="0" y1="986" x2="986" y2="986" stroke="#e2e8f0" stroke-width="1"/><text x="16" y="1006" fill="#3b82f6" font-size="9" font-weight="500">◇ data_flow</text><text x="106" y="1006" fill="#64748b" font-size="9" font-weight="500">╭╮ process</text><text x="196" y="1006" fill="#22c55e" font-size="9" font-weight="500">┃┃ data_store</text><text x="286" y="1006" fill="#f97316" font-size="9" font-weight="500">┌┐ entity</text><circle cx="20" cy="1023" r="4" fill="#ef4444"/><text x="28" y="1026" fill="#64748b" font-size="9">critical</text><circle cx="92" cy="1023" r="4" fill="#f97316"/><text x="100" y="1026" fill="#64748b" font-size="9">high</text><circle cx="164" cy="1023" r="4" fill="#eab308"/><text x="172" y="1026" fill="#64748b" font-size="9">medium</text><circle cx="236" cy="1023" r="4" fill="#3b82f6"/><text x="244" y="1026" fill="#64748b" font-size="9">low</text><text x="970" y="1006" fill="#cbd5e1" font-size="9" text-anchor="end">Generated by ThreatCode</text></g>
</svg>