<svg xmlns="http://www.w3.org/2000/svg" viewBox="0 0 986 1002" width="986" height="1002" font-family="&quot;Inter&quot;, &quot;Segoe UI&quot;, system-ui, sans-serif">
<defs><filter id="shadow" x="-4%" y="-4%" width="108%" height="116%"><feDropShadow dx="0" dy="1" stdDeviation="2" flood-opacity="0.08"/></filter><filter id="glow" x="-10%" y="-10%" width="120%" height="120%"><feGaussianBlur stdDeviation="2" result="blur"/><feMerge><feMergeNode in="blur"/><feMergeNode in="SourceGraphic"/></feMerge></filter><marker id="arrow-dependency" viewBox="0 0 10 7" refX="10" refY="3.5" markerWidth="8" markerHeight="6" orient="auto-start-reverse"><polygon points="0 0, 10 3.5, 0 7" fill="#94a3b8"/></marker><marker id="arrow-containment" viewBox="0 0 10 7" refX="10" refY="3.5" markerWidth="8" markerHeight="6" orient="auto-start-reverse"><polygon points="0 0, 10 3.5, 0 7" fill="#64748b"/></marker><marker id="arrow-network_flow" viewBox="0 0 10 7" refX="10" refY="3.5" markerWidth="8" markerHeight="6" orient="auto-start-reverse"><polygon points="0 0, 10 3.5, 0 7" fill="#3b82f6"/></marker><marker id="arrow-iam_binding" viewBox="0 0 10 7" refX="10" refY="3.5" markerWidth="8" markerHeight="6" orient="auto-start-reverse"><polygon points="0 0, 10 3.5, 0 7" fill="#f97316"/></marker><marker id="arrow-data_flow" viewBox="0 0 10 7" refX="10" refY="3.5" markerWidth="8" markerHeight="6" orient="auto-start-reverse"><polygon points="0 0, 10 3.5, 0 7" fill="#22c55e"/></marker><marker id="arrow-boundary" viewBox="0 0 10 7" refX="10" refY="3.5" markerWidth="8" markerHeight="6" orient="auto-start-reverse"><polygon points="0 0, 10 3.5, 0 7" fill="#ef4444"/></marker></defs>
<rect x="0" y="0" width="986" height="44" fill="#1e293b" rx="0"/><text x="16" y="27" fill="#ffffff" font-size="14" font-weight="600">ThreatCode Threat Model</text><text x="970" y="27" fill="#94a3b8" font-size="11" text-anchor="end">37 resources · 34 threats  2026-03-02T18:45:32</text>
<g class="zone-dmz"><rect x="0" y="64" width="986" height="118" fill="#fff7ed" stroke="#fdba74" stroke-width="1"/><text x="12" y="88" fill="#fdba74" font-size="10" font-weight="600" letter-spacing="0.5">DMZ</text></g>
<g class="zone-private"><rect x="0" y="182" width="986" height="274" fill="#eff6ff" stroke="#93c5fd" stroke-width="1"/><text x="12" y="206" fill="#93c5fd" font-size="10" font-weight="600" letter-spacing="0.5">PRIVATE</text></g>
<g class="zone-data"><rect x="0" y="456" width="986" height="274" fill="#f0fdf4" stroke="#86efac" stroke-width="1"/><text x="12" y="480" fill="#86efac" font-size="10" font-weight="600" letter-spacing="0.5">DATA</text></g>
<g class="zone-management"><rect x="0" y="730" width="986" height="196" fill="#faf5ff" stroke="#c4b5fd" stroke-width="1"/><text x="12" y="754" fill="#c4b5fd" font-size="10" font-weight="600" letter-spacing="0.5">MANAGEMENT</text></g>
<path d="M181.0,138.0 C181.0,163.6 181.0,176.4 181.0,202.0" fill="none" stroke="#ef4444" stroke-width="2" marker-end="url(#arrow-boundary)" filter="url(#glow)" class="edge" data-type="containment" data-boundary="true"/>
<path d="M347.0,138.0 C347.0,163.6 181.0,176.4 181.0,202.0" fill="none" stroke="#ef4444" stroke-width="2" marker-end="url(#arrow-boundary)" filter="url(#glow)" class="edge" data-type="containment" data-boundary="true"/>
<path d="M347.0,256.0 C347.0,277.6 181.0,180.4 181.0,202.0" fill="none" stroke="#64748b" stroke-width="1.5" marker-end="url(#arrow-containment)" class="edge" data-type="containment" data-boundary="false"/>
<path d="M513.0,256.0 C513.0,277.6 181.0,180.4 181.0,202.0" fill="none" stroke="#64748b" stroke-width="1.5" marker-end="url(#arrow-containment)" class="edge" data-type="containment" data-boundary="false"/>
<path d="M181.0,412.0 C181.0,496.0 181.0,118.0 181.0,202.0" fill="none" stroke="#64748b" stroke-width="1.5" marker-end="url(#arrow-containment)" class="edge" data-type="containment" data-boundary="false"/>
<path d="M347.0,412.0 C347.0,496.0 181.0,118.0 181.0,202.0" fill="none" stroke="#64748b" stroke-width="1.5" marker-end="url(#arrow-containment)" class="edge" data-type="containment" data-boundary="false"/>
<path d="M513.0,412.0 C513.0,496.0 181.0,118.0 181.0,202.0" fill="none" stroke="#64748b" stroke-width="1.5" marker-end="url(#arrow-containment)" class="edge" data-type="containment" data-boundary="false"/>
<path d="M679.0,412.0 C679.0,496.0 181.0,118.0 181.0,202.0" fill="none" stroke="#64748b" stroke-width="1.5" marker-end="url(#arrow-containment)" class="edge" data-type="containment" data-boundary="false"/>
<path d="M679.0,138.0 C679.0,159.6 181.0,62.4 181.0,84.0" fill="none" stroke="#64748b" stroke-width="1.5" marker-end="url(#arrow-containment)" class="edge" data-type="containment" data-boundary="false"/>
<path d="M679.0,138.0 C679.0,226.0 513.0,270.0 513.0,358.0" fill="none" stroke="#ef4444" stroke-width="2" marker-end="url(#arrow-boundary)" filter="url(#glow)" class="edge" data-type="network_flow" data-boundary="true"/>
<path d="M679.0,138.0 C679.0,226.0 679.0,270.0 679.0,358.0" fill="none" stroke="#ef4444" stroke-width="2" marker-end="url(#arrow-boundary)" filter="url(#glow)" class="edge" data-type="network_flow" data-boundary="true"/>
<g class="node" data-id="aws_subnet.public_a" filter="url(#shadow)">
<polygon points="181.0,84.0 246.0,111.0 181.0,138.0 116.0,111.0" fill="#ffffff" stroke="#cbd5e1" stroke-width="1.5"/>
<text x="124" y="98" fill="#94a3b8" font-size="8">network</text>
<text x="181" y="116" fill="#1e293b" font-size="11" font-weight="500" text-anchor="middle">public_a</text>
<circle cx="236" cy="80" r="7" fill="#eab308"/><text x="236" y="84" fill="#ffffff" font-size="9" font-weight="600" text-anchor="middle">1</text>
</g>
<g class="node" data-id="aws_subnet.public_b" filter="url(#shadow)">
<polygon points="347.0,84.0 412.0,111.0 347.0,138.0 282.0,111.0" fill="#ffffff" stroke="#cbd5e1" stroke-width="1.5"/>
<text x="290" y="98" fill="#94a3b8" font-size="8">network</text>
<text x="347" y="116" fill="#1e293b" font-size="11" font-weight="500" text-anchor="middle">public_b</text>
<circle cx="402" cy="80" r="7" fill="#eab308"/><text x="402" y="84" fill="#ffffff" font-size="9" font-weight="600" text-anchor="middle">1</text>
</g>
<g class="node" data-id="aws_cloudfront_distribution.game_cdn" filter="url(#shadow)">
<polygon points="513.0,84.0 578.0,111.0 513.0,138.0 448.0,111.0" fill="#ffffff" stroke="#cbd5e1" stroke-width="1.5"/>
<text x="456" y="98" fill="#94a3b8" font-size="8">cdn</text>
<text x="513" y="116" fill="#1e293b" font-size="11" font-weight="500" text-anchor="middle">game_cdn</text>
</g>
<g class="node" data-id="aws_instance.game_server_1" filter="url(#shadow)">
<rect x="614" y="84" width="130" height="54" rx="6" ry="6" fill="#ffffff" stroke="#cbd5e1" stroke-width="1.5"/>
<text x="622" y="98" fill="#94a3b8" font-size="8">compute</text>
<text x="679" y="116" fill="#1e293b" font-size="11" font-weight="500" text-anchor="middle">game_server_1</text>
<circle cx="734" cy="80" r="7" fill="#f97316"/><text x="734" y="84" fill="#ffffff" font-size="9" font-weight="600" text-anchor="middle">5</text>
</g>
<g class="node" data-id="aws_vpc.stormforge" filter="url(#shadow)">
<polygon points="181.0,202.0 246.0,229.0 181.0,256.0 116.0,229.0" fill="#ffffff" stroke="#cbd5e1" stroke-width="1.5"/>
<text x="124" y="216" fill="#94a3b8" font-size="8">network</text>
<text x="181" y="234" fill="#1e293b" font-size="11" font-weight="500" text-anchor="middle">stormforge</text>
<circle cx="236" cy="198" r="7" fill="#eab308"/><text x="236" y="202" fill="#ffffff" font-size="9" font-weight="600" text-anchor="middle">1</text>
</g>
<g class="node" data-id="aws_subnet.private_a" filter="url(#shadow)">
<polygon points="347.0,202.0 412.0,229.0 347.0,256.0 282.0,229.0" fill="#ffffff" stroke="#cbd5e1" stroke-width="1.5"/>
<text x="290" y="216" fill="#94a3b8" font-size="8">network</text>
<text x="347" y="234" fill="#1e293b" font-size="11" font-weight="500" text-anchor="middle">private_a</text>
</g>
<g class="node" data-id="aws_subnet.private_b" filter="url(#shadow)">
<polygon points="513.0,202.0 578.0,229.0 513.0,256.0 448.0,229.0" fill="#ffffff" stroke="#cbd5e1" stroke-width="1.5"/>
<text x="456" y="216" fill="#94a3b8" font-size="8">network</text>
<text x="513" y="234" fill="#1e293b" font-size="11" font-weight="500" text-anchor="middle">private_b</text>
</g>
<g class="node" data-id="aws_api_gateway_rest_api.game_api" filter="url(#shadow)">
<rect x="614" y="202" width="130" height="54" rx="6" ry="6" fill="#ffffff" stroke="#cbd5e1" stroke-width="1.5"/>
<text x="622" y="216" fill="#94a3b8" font-size="8">unknown</text>
<text x="679" y="234" fill="#1e293b" font-size="11" font-weight="500" text-anchor="middle">game_api</text>
</g>
<g class="node" data-id="aws_lambda_function.matchmaking" filter="url(#shadow)">
<rect x="780" y="202" width="130" height="54" rx="6" ry="6" fill="#ffffff" stroke="#cbd5e1" stroke-width="1.5"/>
<text x="788" y="216" fill="#94a3b8" font-size="8">serverless</text>
<text x="845" y="234" fill="#1e293b" font-size="11" font-weight="500" text-anchor="middle">matchmaking</text>
</g>
<g class="node" data-id="aws_lambda_function.leaderboard" filter="url(#shadow)">
<rect x="116" y="280" width="130" height="54" rx="6" ry="6" fill="#ffffff" stroke="#cbd5e1" stroke-width="1.5"/>
<text x="124" y="294" fill="#94a3b8" font-size="8">serverless</text>
<text x="181" y="312" fill="#1e293b" font-size="11" font-weight="500" text-anchor="middle">leaderboard</text>
</g>
<g class="node" data-id="aws_lambda_function.player_stats" filter="url(#shadow)">
<rect x="282" y="280" width="130" height="54" rx="6" ry="6" fill="#ffffff" stroke="#cbd5e1" stroke-width="1.5"/>
<text x="290" y="294" fill="#94a3b8" font-size="8">serverless</text>
<text x="347" y="312" fill="#1e293b" font-size="11" font-weight="500" text-anchor="middle">player_stats</text>
<circle cx="402" cy="276" r="7" fill="#eab308"/><text x="402" y="280" fill="#ffffff" font-size="9" font-weight="600" text-anchor="middle">2</text>
</g>
<g class="node" data-id="aws_lambda_function.chat_handler" filter="url(#shadow)">
<rect x="448" y="280" width="130" height="54" rx="6" ry="6" fill="#ffffff" stroke="#cbd5e1" stroke-width="1.5"/>
<text x="456" y="294" fill="#94a3b8" font-size="8">serverless</text>
<text x="513" y="312" fill="#1e293b" font-size="11" font-weight="500" text-anchor="middle">chat_handler</text>
<circle cx="568" cy="276" r="7" fill="#3b82f6"/><text x="568" y="280" fill="#ffffff" font-size="9" font-weight="600" text-anchor="middle">1</text>
</g>
<g class="node" data-id="aws_sqs_queue.matchmaking_queue" filter="url(#shadow)">
<polygon points="679.0,280.0 744.0,307.0 679.0,334.0 614.0,307.0" fill="#ffffff" stroke="#cbd5e1" stroke-width="1.5"/>
<text x="622" y="294" fill="#94a3b8" font-size="8">messaging</text>
<text x="679" y="312" fill="#1e293b" font-size="11" font-weight="500" text-anchor="middle">matchmaking_queue</text>
</g>
<g class="node" data-id="aws_sqs_queue.matchmaking_dlq" filter="url(#shadow)">
<polygon points="845.0,280.0 910.0,307.0 845.0,334.0 780.0,307.0" fill="#ffffff" stroke="#cbd5e1" stroke-width="1.5"/>
<text x="788" y="294" fill="#94a3b8" font-size="8">messaging</text>
<text x="845" y="312" fill="#1e293b" font-size="11" font-weight="500" text-anchor="middle">matchmaking_dlq</text>
</g>
<g class="node" data-id="aws_security_group.lambda_sg" filter="url(#shadow)">
<polygon points="181.0,358.0 246.0,385.0 181.0,412.0 116.0,385.0" fill="#ffffff" stroke="#cbd5e1" stroke-width="1.5"/>
<text x="124" y="372" fill="#94a3b8" font-size="8">network</text>
<text x="181" y="390" fill="#1e293b" font-size="11" font-weight="500" text-anchor="middle">lambda_sg</text>
</g>
<g class="node" data-id="aws_security_group.redis_sg" filter="url(#shadow)">
<polygon points="347.0,358.0 412.0,385.0 347.0,412.0 282.0,385.0" fill="#ffffff" stroke="#cbd5e1" stroke-width="1.5"/>
<text x="290" y="372" fill="#94a3b8" font-size="8">network</text>
<text x="347" y="390" fill="#1e293b" font-size="11" font-weight="500" text-anchor="middle">redis_sg</text>
</g>
<g class="node" data-id="aws_security_group.game_server_sg" filter="url(#shadow)">
<polygon points="513.0,358.0 578.0,385.0 513.0,412.0 448.0,385.0" fill="#ffffff" stroke="#cbd5e1" stroke-width="1.5"/>
<text x="456" y="372" fill="#94a3b8" font-size="8">network</text>
<text x="513" y="390" fill="#1e293b" font-size="11" font-weight="500" text-anchor="middle">game_server_sg</text>
</g>
<g class="node" data-id="aws_security_group.game_server_test_sg" filter="url(#shadow)">
<polygon points="679.0,358.0 744.0,385.0 679.0,412.0 614.0,385.0" fill="#ffffff" stroke="#cbd5e1" stroke-width="1.5"/>
<text x="622" y="372" fill="#94a3b8" font-size="8">network</text>
<text x="679" y="390" fill="#1e293b" font-size="11" font-weight="500" text-anchor="middle">game_server_test_sg</text>
</g>
<g class="node" data-id="aws_dynamodb_table.players" filter="url(#shadow)">
<rect x="116" y="482" width="130" height="42" fill="#ffffff" stroke="#cbd5e1" stroke-width="1.5"/><ellipse cx="181" cy="482" rx="65.0" ry="6" fill="#ffffff" stroke="#cbd5e1" stroke-width="1.5"/><ellipse cx="181" cy="524" rx="65.0" ry="6" fill="#ffffff" stroke="#cbd5e1" stroke-width="1.5"/>
<text x="124" y="490" fill="#94a3b8" font-size="8">database</text>
<text x="181" y="508" fill="#1e293b" font-size="11" font-weight="500" text-anchor="middle">players</text>
</g>
<g class="node" data-id="aws_dynamodb_table.matches" filter="url(#shadow)">
<rect x="282" y="482" width="130" height="42" fill="#ffffff" stroke="#cbd5e1" stroke-width="1.5"/><ellipse cx="347" cy="482" rx="65.0" ry="6" fill="#ffffff" stroke="#cbd5e1" stroke-width="1.5"/><ellipse cx="347" cy="524" rx="65.0" ry="6" fill="#ffffff" stroke="#cbd5e1" stroke-width="1.5"/>
<text x="290" y="490" fill="#94a3b8" font-size="8">database</text>
<text x="347" y="508" fill="#1e293b" font-size="11" font-weight="500" text-anchor="middle">matches</text>
</g>
<g class="node" data-id="aws_dynamodb_table.leaderboards" filter="url(#shadow)">
<rect x="448" y="482" width="130" height="42" fill="#ffffff" stroke="#cbd5e1" stroke-width="1.5"/><ellipse cx="513" cy="482" rx="65.0" ry="6" fill="#ffffff" stroke="#cbd5e1" stroke-width="1.5"/><ellipse cx="513" cy="524" rx="65.0" ry="6" fill="#ffffff" stroke="#cbd5e1" stroke-width="1.5"/>
<text x="456" y="490" fill="#94a3b8" font-size="8">database</text>
<text x="513" y="508" fill="#1e293b" font-size="11" font-weight="500" text-anchor="middle">leaderboards</text>
</g>
<g class="node" data-id="aws_elasticache_replication_group.session_cache" filter="url(#shadow)">
<rect x="614" y="482" width="130" height="42" fill="#ffffff" stroke="#cbd5e1" stroke-width="1.5"/><ellipse cx="679" cy="482" rx="65.0" ry="6" fill="#ffffff" stroke="#cbd5e1" stroke-width="1.5"/><ellipse cx="679" cy="524" rx="65.0" ry="6" fill="#ffffff" stroke="#cbd5e1" stroke-width="1.5"/>
<text x="622" y="490" fill="#94a3b8" font-size="8">database</text>
<text x="679" y="508" fill="#1e293b" font-size="11" font-weight="500" text-anchor="middle">session_cache</text>
</g>
<g class="node" data-id="aws_s3_bucket.game_assets" filter="url(#shadow)">
<rect x="780" y="482" width="130" height="42" fill="#ffffff" stroke="#cbd5e1" stroke-width="1.5"/><ellipse cx="845" cy="482" rx="65.0" ry="6" fill="#ffffff" stroke="#cbd5e1" stroke-width="1.5"/><ellipse cx="845" cy="524" rx="65.0" ry="6" fill="#ffffff" stroke="#cbd5e1" stroke-width="1.5"/>
<text x="788" y="490" fill="#94a3b8" font-size="8">storage</text>
<text x="845" y="508" fill="#1e293b" font-size="11" font-weight="500" text-anchor="middle">game_assets</text>
<circle cx="900" cy="472" r="7" fill="#f97316"/><text x="900" y="476" fill="#ffffff" font-size="9" font-weight="600" text-anchor="middle">3</text>
</g>
<g class="node" data-id="aws_s3_bucket_acl.game_assets" filter="url(#shadow)">
<rect x="116" y="560" width="130" height="42" fill="#ffffff" stroke="#cbd5e1" stroke-width="1.5"/><ellipse cx="181" cy="560" rx="65.0" ry="6" fill="#ffffff" stroke="#cbd5e1" stroke-width="1.5"/><ellipse cx="181" cy="602" rx="65.0" ry="6" fill="#ffffff" stroke="#cbd5e1" stroke-width="1.5"/>
<text x="124" y="568" fill="#94a3b8" font-size="8">storage</text>
<text x="181" y="586" fill="#1e293b" font-size="11" font-weight="500" text-anchor="middle">game_assets</text>
<circle cx="236" cy="550" r="7" fill="#ef4444"/><text x="236" y="554" fill="#ffffff" font-size="9" font-weight="600" text-anchor="middle">4</text>
</g>
<g class="node" data-id="aws_s3_bucket.player_data" filter="url(#shadow)">
<rect x="282" y="560" width="130" height="42" fill="#ffffff" stroke="#cbd5e1" stroke-width="1.5"/><ellipse cx="347" cy="560" rx="65.0" ry="6" fill="#ffffff" stroke="#cbd5e1" stroke-width="1.5"/><ellipse cx="347" cy="602" rx="65.0" ry="6" fill="#ffffff" stroke="#cbd5e1" stroke-width="1.5"/>
<text x="290" y="568" fill="#94a3b8" font-size="8">storage</text>
<text x="347" y="586" fill="#1e293b" font-size="11" font-weight="500" text-anchor="middle">player_data</text>
<circle cx="402" cy="550" r="7" fill="#f97316"/><text x="402" y="554" fill="#ffffff" font-size="9" font-weight="600" text-anchor="middle">3</text>
</g>
<g class="node" data-id="aws_s3_bucket_public_access_block.player_data" filter="url(#shadow)">
<rect x="448" y="560" width="130" height="42" fill="#ffffff" stroke="#cbd5e1" stroke-width="1.5"/><ellipse cx="513" cy="560" rx="65.0" ry="6" fill="#ffffff" stroke="#cbd5e1" stroke-width="1.5"/><ellipse cx="513" cy="602" rx="65.0" ry="6" fill="#ffffff" stroke="#cbd5e1" stroke-width="1.5"/>
<text x="456" y="568" fill="#94a3b8" font-size="8">storage</text>
<text x="513" y="586" fill="#1e293b" font-size="11" font-weight="500" text-anchor="middle">player_data</text>
<circle cx="568" cy="550" r="7" fill="#f97316"/><text x="568" y="554" fill="#ffffff" font-size="9" font-weight="600" text-anchor="middle">3</text>
</g>
<g class="node" data-id="aws_s3_bucket.replay_storage" filter="url(#shadow)">
<rect x="614" y="560" width="130" height="42" fill="#ffffff" stroke="#cbd5e1" stroke-width="1.5"/><ellipse cx="679" cy="560" rx="65.0" ry="6" fill="#ffffff" stroke="#cbd5e1" stroke-width="1.5"/><ellipse cx="679" cy="602" rx="65.0" ry="6" fill="#ffffff" stroke="#cbd5e1" stroke-width="1.5"/>
<text x="622" y="568" fill="#94a3b8" font-size="8">storage</text>
<text x="679" y="586" fill="#1e293b" font-size="11" font-weight="500" text-anchor="middle">replay_storage</text>
<circle cx="734" cy="550" r="7" fill="#f97316"/><text x="734" y="554" fill="#ffffff" font-size="9" font-weight="600" text-anchor="middle">3</text>
</g>
<g class="node" data-id="aws_s3_bucket_server_side_encryption_configuration.replay_storage" filter="url(#shadow)">
<rect x="780" y="560" width="130" height="42" fill="#ffffff" stroke="#cbd5e1" stroke-width="1.5"/><ellipse cx="845" cy="560" rx="65.0" ry="6" fill="#ffffff" stroke="#cbd5e1" stroke-width="1.5"/><ellipse cx="845" cy="602" rx="65.0" ry="6" fill="#ffffff" stroke="#cbd5e1" stroke-width="1.5"/>
<text x="788" y="568" fill="#94a3b8" font-size="8">storage</text>
<text x="845" y="586" fill="#1e293b" font-size="11" font-weight="500" text-anchor="middle">replay_storage</text>
<circle cx="900" cy="550" r="7" fill="#f97316"/><text x="900" y="554" fill="#ffffff" font-size="9" font-weight="600" text-anchor="middle">3</text>
</g>
<g class="node" data-id="aws_s3_bucket_lifecycle_configuration.replay_storage" filter="url(#shadow)">
<rect x="116" y="638" width="130" height="42" fill="#ffffff" stroke="#cbd5e1" stroke-width="1.5"/><ellipse cx="181" cy="638" rx="65.0" ry="6" fill="#ffffff" stroke="#cbd5e1" stroke-width="1.5"/><ellipse cx="181" cy="680" rx="65.0" ry="6" fill="#ffffff" stroke="#cbd5e1" stroke-width="1.5"/>
<text x="124" y="646" fill="#94a3b8" font-size="8">storage</text>
<text x="181" y="664" fill="#1e293b" font-size="11" font-weight="500" text-anchor="middle">replay_storage</text>
<circle cx="236" cy="628" r="7" fill="#f97316"/><text x="236" y="632" fill="#ffffff" font-size="9" font-weight="600" text-anchor="middle">3</text>
</g>
<g class="node" data-id="aws_iam_role.lambda_game_services" filter="url(#shadow)">
<rect x="116" y="750" width="130" height="54" fill="#ffffff" stroke="#cbd5e1" stroke-width="1.5"/><rect x="119" y="753" width="124" height="48" fill="none" stroke="#cbd5e1" stroke-width="1"/>
<text x="124" y="764" fill="#94a3b8" font-size="8">iam</text>
<text x="181" y="782" fill="#1e293b" font-size="11" font-weight="500" text-anchor="middle">lambda_game_services</text>
</g>
<g class="node" data-id="aws_iam_policy.lambda_game_services" filter="url(#shadow)">
<rect x="282" y="750" width="130" height="54" fill="#ffffff" stroke="#cbd5e1" stroke-width="1.5"/><rect x="285" y="753" width="124" height="48" fill="none" stroke="#cbd5e1" stroke-width="1"/>
<text x="290" y="764" fill="#94a3b8" font-size="8">iam</text>
<text x="347" y="782" fill="#1e293b" font-size="11" font-weight="500" text-anchor="middle">lambda_game_services</text>
</g>
<g class="node" data-id="aws_iam_role.game_server" filter="url(#shadow)">
<rect x="448" y="750" width="130" height="54" fill="#ffffff" stroke="#cbd5e1" stroke-width="1.5"/><rect x="451" y="753" width="124" height="48" fill="none" stroke="#cbd5e1" stroke-width="1"/>
<text x="456" y="764" fill="#94a3b8" font-size="8">iam</text>
<text x="513" y="782" fill="#1e293b" font-size="11" font-weight="500" text-anchor="middle">game_server</text>
</g>
<g class="node" data-id="aws_iam_policy.game_server" filter="url(#shadow)">
<rect x="614" y="750" width="130" height="54" fill="#ffffff" stroke="#cbd5e1" stroke-width="1.5"/><rect x="617" y="753" width="124" height="48" fill="none" stroke="#cbd5e1" stroke-width="1"/>
<text x="622" y="764" fill="#94a3b8" font-size="8">iam</text>
<text x="679" y="782" fill="#1e293b" font-size="11" font-weight="500" text-anchor="middle">game_server</text>
<circle cx="734" cy="746" r="7" fill="#ef4444"/><text x="734" y="750" fill="#ffffff" font-size="9" font-weight="600" text-anchor="middle">1</text>
</g>
<g class="node" data-id="aws_iam_role_policy_attachment.game_server" filter="url(#shadow)">
<rect x="780" y="750" width="130" height="54" fill="#ffffff" stroke="#cbd5e1" stroke-width="1.5"/><rect x="783" y="753" width="124" height="48" fill="none" stroke="#cbd5e1" stroke-width="1"/>
<text x="788" y="764" fill="#94a3b8" font-size="8">iam</text>
<text x="845" y="782" fill="#1e293b" font-size="11" font-weight="500" text-anchor="middle">game_server</text>
</g>
<g class="node" data-id="aws_iam_instance_profile.game_server" filter="url(#shadow)">
<rect x="116" y="828" width="130" height="54" fill="#ffffff" stroke="#cbd5e1" stroke-width="1.5"/><rect x="119" y="831" width="124" height="48" fill="none" stroke="#cbd5e1" stroke-width="1"/>
<text x="124" y="842" fill="#94a3b8" font-size="8">iam</text>
<text x="181" y="860" fill="#1e293b" font-size="11" font-weight="500" text-anchor="middle">game_server</text>
</g>
<g class="node" data-id="aws_cloudwatch_log_group.game_services" filter="url(#shadow)">
<rect x="282" y="828" width="130" height="54" rx="6" ry="6" fill="#ffffff" stroke="#cbd5e1" stroke-width="1.5"/>
<text x="290" y="842" fill="#94a3b8" font-size="8">monitoring</text>
<text x="347" y="860" fill="#1e293b" font-size="11" font-weight="500" text-anchor="middle">game_services</text>
</g>
<g class="node" data-id="aws_cloudwatch_dashboard.game_operations" filter="url(#shadow)">
<rect x="448" y="828" width="130" height="54" rx="6" ry="6" fill="#ffffff" stroke="#cbd5e1" stroke-width="1.5"/>
<text x="456" y="842" fill="#94a3b8" font-size="8">monitoring</text>
<text x="513" y="860" fill="#1e293b" font-size="11" font-weight="500" text-anchor="middle">game_operations</text>
</g>
<g class="legend"><rect x="0" y="946" width="986" height="56" fill="#f8fafc"/><line x1="0" y1="946" x2="986" y2="946" stroke="#e2e8f0" stroke-width="1"/><text x="16" y="966" fill="#3b82f6" font-size="9" font-weight="500">◇ data_flow</text><text x="106" y="966" fill="#64748b" font-size="9" font-weight="500">╭╮ process</text><text x="196" y="966" fill="#22c55e" font-size="9" font-weight="500">┃┃ data_store</text><text x="286" y="966" fill="#f97316" font-size="9" font-weight="500">┌┐ entity</text><circle cx="20" cy="983" r="4" fill="#ef4444"/><text x="28" y="986" fill="#64748b" font-size="9">critical</text><circle cx="92" cy="983" r="4" fill="#f97316"/><text x="100" y="986" fill="#64748b" font-size="9">high</text><circle cx="164" cy="983" r="4" fill="#eab308"/><text x="172" y="986" fill="#64748b" font-size="9">medium</text><circle cx="236" cy="983" r="4" fill="#3b82f6"/><text x="244" y="986" fill="#64748b" font-size="9">low</text><text x="970" y="966" fill="#cbd5e1" font-size="9" text-anchor="end">Generated by ThreatCode</text></g>
</svg>