<svg xmlns="http://www.w3.org/2000/svg" viewBox="0 0 986 886" width="986" height="886" font-family="&quot;Inter&quot;, &quot;Segoe UI&quot;, system-ui, sans-serif">
<defs><filter id="shadow" x="-4%" y="-4%" width="108%" height="116%"><feDropShadow dx="0" dy="1" stdDeviation="2" flood-opacity="0.08"/></filter><filter id="glow" x="-10%" y="-10%" width="120%" height="120%"><feGaussianBlur stdDeviation="2" result="blur"/><feMerge><feMergeNode in="blur"/><feMergeNode in="SourceGraphic"/></feMerge></filter><marker id="arrow-dependency" viewBox="0 0 10 7" refX="10" refY="3.5" markerWidth="8" markerHeight="6" orient="auto-start-reverse"><polygon points="0 0, 10 3.5, 0 7" fill="#94a3b8"/></marker><marker id="arrow-containment" viewBox="0 0 10 7" refX="10" refY="3.5" markerWidth="8" markerHeight="6" orient="auto-start-reverse"><polygon points="0 0, 10 3.5, 0 7" fill="#64748b"/></marker><marker id="arrow-network_flow" viewBox="0 0 10 7" refX="10" refY="3.5" markerWidth="8" markerHeight="6" orient="auto-start-reverse"><polygon points="0 0, 10 3.5, 0 7" fill="#3b82f6"/></marker><marker id="arrow-iam_binding" viewBox="0 0 10 7" refX="10" refY="3.5" markerWidth="8" markerHeight="6" orient="auto-start-reverse"><polygon points="0 0, 10 3.5, 0 7" fill="#f97316"/></marker><marker id="arrow-data_flow" viewBox="0 0 10 7" refX="10" refY="3.5" markerWidth="8" markerHeight="6" orient="auto-start-reverse"><polygon points="0 0, 10 3.5, 0 7" fill="#22c55e"/></marker><marker id="arrow-boundary" viewBox="0 0 10 7" refX="10" refY="3.5" markerWidth="8" markerHeight="6" orient="auto-start-reverse"><polygon points="0 0, 10 3.5, 0 7" fill="#ef4444"/></marker></defs>
<rect x="0" y="0" width="986" height="44" fill="#1e293b" rx="0"/><text x="16" y="27" fill="#ffffff" font-size="14" font-weight="600">ThreatCode Threat Model</text><text x="970" y="27" fill="#94a3b8" font-size="11" text-anchor="end">22 resources · 42 threats  2026-03-01T15:17:21</text>
<g class="zone-internet"><rect x="0" y="64" width="986" height="118" fill="#fef2f2" stroke="#fca5a5" stroke-width="1"/><text x="12" y="88" fill="#fca5a5" font-size="10" font-weight="600" letter-spacing="0.5">INTERNET</text></g>
<g class="zone-dmz"><rect x="0" y="182" width="986" height="118" fill="#fff7ed" stroke="#fdba74" stroke-width="1"/><text x="12" y="206" fill="#fdba74" font-size="10" font-weight="600" letter-spacing="0.5">DMZ</text></g>
<g class="zone-private"><rect x="0" y="300" width="986" height="274" fill="#eff6ff" stroke="#93c5fd" stroke-width="1"/><text x="12" y="324" fill="#93c5fd" font-size="10" font-weight="600" letter-spacing="0.5">PRIVATE</text></g>
<g class="zone-data"><rect x="0" y="574" width="986" height="118" fill="#f0fdf4" stroke="#86efac" stroke-width="1"/><text x="12" y="598" fill="#86efac" font-size="10" font-weight="600" letter-spacing="0.5">DATA</text></g>
<g class="zone-management"><rect x="0" y="692" width="986" height="118" fill="#faf5ff" stroke="#c4b5fd" stroke-width="1"/><text x="12" y="716" fill="#c4b5fd" font-size="10" font-weight="600" letter-spacing="0.5">MANAGEMENT</text></g>
<path d="M181.0,256.0 C181.0,277.6 679.0,180.4 679.0,202.0" fill="none" stroke="#94a3b8" stroke-width="1" marker-end="url(#arrow-dependency)" class="edge" data-type="dependency" data-boundary="false"/>
<path d="M347.0,256.0 C347.0,277.6 679.0,180.4 679.0,202.0" fill="none" stroke="#94a3b8" stroke-width="1" marker-end="url(#arrow-dependency)" class="edge" data-type="dependency" data-boundary="false"/>
<path d="M679.0,374.0 C679.0,395.6 347.0,298.4 347.0,320.0" fill="none" stroke="#94a3b8" stroke-width="1" marker-end="url(#arrow-dependency)" class="edge" data-type="dependency" data-boundary="false"/>
<path d="M679.0,374.0 C679.0,395.6 347.0,298.4 347.0,320.0" fill="none" stroke="#64748b" stroke-width="1.5" marker-end="url(#arrow-containment)" class="edge" data-type="containment" data-boundary="false"/>
<path d="M845.0,374.0 C845.0,395.6 347.0,298.4 347.0,320.0" fill="none" stroke="#94a3b8" stroke-width="1" marker-end="url(#arrow-dependency)" class="edge" data-type="dependency" data-boundary="false"/>
<path d="M845.0,374.0 C845.0,395.6 347.0,298.4 347.0,320.0" fill="none" stroke="#64748b" stroke-width="1.5" marker-end="url(#arrow-containment)" class="edge" data-type="containment" data-boundary="false"/>
<path d="M181.0,452.0 C181.0,504.8 347.0,267.2 347.0,320.0" fill="none" stroke="#94a3b8" stroke-width="1" marker-end="url(#arrow-dependency)" class="edge" data-type="dependency" data-boundary="false"/>
<path d="M181.0,452.0 C181.0,504.8 347.0,267.2 347.0,320.0" fill="none" stroke="#64748b" stroke-width="1.5" marker-end="url(#arrow-containment)" class="edge" data-type="containment" data-boundary="false"/>
<path d="M513.0,256.0 C513.0,281.6 347.0,294.4 347.0,320.0" fill="none" stroke="#ef4444" stroke-width="2" marker-end="url(#arrow-boundary)" filter="url(#glow)" class="edge" data-type="dependency" data-boundary="true"/>
<path d="M347.0,452.0 C347.0,504.8 347.0,267.2 347.0,320.0" fill="none" stroke="#94a3b8" stroke-width="1" marker-end="url(#arrow-dependency)" class="edge" data-type="dependency" data-boundary="false"/>
<path d="M679.0,256.0 C679.0,281.6 347.0,294.4 347.0,320.0" fill="none" stroke="#ef4444" stroke-width="2" marker-end="url(#arrow-boundary)" filter="url(#glow)" class="edge" data-type="dependency" data-boundary="true"/>
<path d="M679.0,256.0 C679.0,281.6 347.0,294.4 347.0,320.0" fill="none" stroke="#ef4444" stroke-width="2" marker-end="url(#arrow-boundary)" filter="url(#glow)" class="edge" data-type="containment" data-boundary="true"/>
<path d="M181.0,530.0 C181.0,614.0 347.0,236.0 347.0,320.0" fill="none" stroke="#94a3b8" stroke-width="1" marker-end="url(#arrow-dependency)" class="edge" data-type="dependency" data-boundary="false"/>
<path d="M181.0,530.0 C181.0,614.0 347.0,236.0 347.0,320.0" fill="none" stroke="#64748b" stroke-width="1.5" marker-end="url(#arrow-containment)" class="edge" data-type="containment" data-boundary="false"/>
<path d="M181.0,138.0 C181.0,210.8 347.0,247.2 347.0,320.0" fill="none" stroke="#ef4444" stroke-width="2" marker-end="url(#arrow-boundary)" filter="url(#glow)" class="edge" data-type="dependency" data-boundary="true"/>
<path d="M181.0,138.0 C181.0,210.8 347.0,247.2 347.0,320.0" fill="none" stroke="#ef4444" stroke-width="2" marker-end="url(#arrow-boundary)" filter="url(#glow)" class="edge" data-type="containment" data-boundary="true"/>
<g class="node" data-id="aws_internet_gateway.igw" filter="url(#shadow)">
<polygon points="181.0,84.0 246.0,111.0 181.0,138.0 116.0,111.0" fill="#ffffff" stroke="#cbd5e1" stroke-width="1.5"/>
<text x="124" y="98" fill="#94a3b8" font-size="8">network</text>
<text x="181" y="116" fill="#1e293b" font-size="11" font-weight="500" text-anchor="middle">igw</text>
<circle cx="236" cy="80" r="7" fill="#f97316"/><text x="236" y="84" fill="#ffffff" font-size="9" font-weight="600" text-anchor="middle">2</text>
</g>
<g class="node" data-id="aws_instance.public_web" filter="url(#shadow)">
<rect x="116" y="202" width="130" height="54" rx="6" ry="6" fill="#ffffff" stroke="#cbd5e1" stroke-width="1.5"/>
<text x="124" y="216" fill="#94a3b8" font-size="8">compute</text>
<text x="181" y="234" fill="#1e293b" font-size="11" font-weight="500" text-anchor="middle">public_web</text>
<circle cx="236" cy="198" r="7" fill="#f97316"/><text x="236" y="202" fill="#ffffff" font-size="9" font-weight="600" text-anchor="middle">3</text>
</g>
<g class="node" data-id="aws_instance.unmonitored" filter="url(#shadow)">
<rect x="282" y="202" width="130" height="54" rx="6" ry="6" fill="#ffffff" stroke="#cbd5e1" stroke-width="1.5"/>
<text x="290" y="216" fill="#94a3b8" font-size="8">compute</text>
<text x="347" y="234" fill="#1e293b" font-size="11" font-weight="500" text-anchor="middle">unmonitored</text>
<circle cx="402" cy="198" r="7" fill="#f97316"/><text x="402" y="202" fill="#ffffff" font-size="9" font-weight="600" text-anchor="middle">3</text>
</g>
<g class="node" data-id="aws_db_instance.public_db" filter="url(#shadow)">
<rect x="448" y="208" width="130" height="42" fill="#ffffff" stroke="#cbd5e1" stroke-width="1.5"/><ellipse cx="513" cy="208" rx="65.0" ry="6" fill="#ffffff" stroke="#cbd5e1" stroke-width="1.5"/><ellipse cx="513" cy="250" rx="65.0" ry="6" fill="#ffffff" stroke="#cbd5e1" stroke-width="1.5"/>
<text x="456" y="216" fill="#94a3b8" font-size="8">database</text>
<text x="513" y="234" fill="#1e293b" font-size="11" font-weight="500" text-anchor="middle">public_db</text>
<circle cx="568" cy="198" r="7" fill="#ef4444"/><text x="568" y="202" fill="#ffffff" font-size="9" font-weight="600" text-anchor="middle">4</text>
</g>
<g class="node" data-id="aws_subnet.public" filter="url(#shadow)">
<polygon points="679.0,202.0 744.0,229.0 679.0,256.0 614.0,229.0" fill="#ffffff" stroke="#cbd5e1" stroke-width="1.5"/>
<text x="622" y="216" fill="#94a3b8" font-size="8">network</text>
<text x="679" y="234" fill="#1e293b" font-size="11" font-weight="500" text-anchor="middle">public</text>
<circle cx="734" cy="198" r="7" fill="#eab308"/><text x="734" y="202" fill="#ffffff" font-size="9" font-weight="600" text-anchor="middle">2</text>
</g>
<g class="node" data-id="aws_instance.unencrypted_ebs" filter="url(#shadow)">
<rect x="116" y="320" width="130" height="54" rx="6" ry="6" fill="#ffffff" stroke="#cbd5e1" stroke-width="1.5"/>
<text x="124" y="334" fill="#94a3b8" font-size="8">compute</text>
<text x="181" y="352" fill="#1e293b" font-size="11" font-weight="500" text-anchor="middle">unencrypted_ebs</text>
<circle cx="236" cy="316" r="7" fill="#eab308"/><text x="236" y="320" fill="#ffffff" font-size="9" font-weight="600" text-anchor="middle">2</text>
</g>
<g class="node" data-id="aws_vpc.main" filter="url(#shadow)">
<polygon points="347.0,320.0 412.0,347.0 347.0,374.0 282.0,347.0" fill="#ffffff" stroke="#cbd5e1" stroke-width="1.5"/>
<text x="290" y="334" fill="#94a3b8" font-size="8">network</text>
<text x="347" y="352" fill="#1e293b" font-size="11" font-weight="500" text-anchor="middle">main</text>
<circle cx="402" cy="316" r="7" fill="#eab308"/><text x="402" y="320" fill="#ffffff" font-size="9" font-weight="600" text-anchor="middle">1</text>
</g>
<g class="node" data-id="aws_vpc.secondary" filter="url(#shadow)">
<polygon points="513.0,320.0 578.0,347.0 513.0,374.0 448.0,347.0" fill="#ffffff" stroke="#cbd5e1" stroke-width="1.5"/>
<text x="456" y="334" fill="#94a3b8" font-size="8">network</text>
<text x="513" y="352" fill="#1e293b" font-size="11" font-weight="500" text-anchor="middle">secondary</text>
<circle cx="568" cy="316" r="7" fill="#eab308"/><text x="568" y="320" fill="#ffffff" font-size="9" font-weight="600" text-anchor="middle">1</text>
</g>
<g class="node" data-id="aws_default_security_group.default_open" filter="url(#shadow)">
<rect x="614" y="320" width="130" height="54" rx="6" ry="6" fill="#ffffff" stroke="#cbd5e1" stroke-width="1.5"/>
<text x="622" y="334" fill="#94a3b8" font-size="8">unknown</text>
<text x="679" y="352" fill="#1e293b" font-size="11" font-weight="500" text-anchor="middle">default_open</text>
<circle cx="734" cy="316" r="7" fill="#eab308"/><text x="734" y="320" fill="#ffffff" font-size="9" font-weight="600" text-anchor="middle">1</text>
</g>
<g class="node" data-id="aws_security_group.wide_open" filter="url(#shadow)">
<polygon points="845.0,320.0 910.0,347.0 845.0,374.0 780.0,347.0" fill="#ffffff" stroke="#cbd5e1" stroke-width="1.5"/>
<text x="788" y="334" fill="#94a3b8" font-size="8">network</text>
<text x="845" y="352" fill="#1e293b" font-size="11" font-weight="500" text-anchor="middle">wide_open</text>
<circle cx="900" cy="316" r="7" fill="#f97316"/><text x="900" y="320" fill="#ffffff" font-size="9" font-weight="600" text-anchor="middle">1</text>
</g>
<g class="node" data-id="aws_security_group.ipv6_open" filter="url(#shadow)">
<polygon points="181.0,398.0 246.0,425.0 181.0,452.0 116.0,425.0" fill="#ffffff" stroke="#cbd5e1" stroke-width="1.5"/>
<text x="124" y="412" fill="#94a3b8" font-size="8">network</text>
<text x="181" y="430" fill="#1e293b" font-size="11" font-weight="500" text-anchor="middle">ipv6_open</text>
<circle cx="236" cy="394" r="7" fill="#f97316"/><text x="236" y="398" fill="#ffffff" font-size="9" font-weight="600" text-anchor="middle">1</text>
</g>
<g class="node" data-id="aws_db_instance.no_backup_db" filter="url(#shadow)">
<rect x="282" y="404" width="130" height="42" fill="#ffffff" stroke="#cbd5e1" stroke-width="1.5"/><ellipse cx="347" cy="404" rx="65.0" ry="6" fill="#ffffff" stroke="#cbd5e1" stroke-width="1.5"/><ellipse cx="347" cy="446" rx="65.0" ry="6" fill="#ffffff" stroke="#cbd5e1" stroke-width="1.5"/>
<text x="290" y="412" fill="#94a3b8" font-size="8">database</text>
<text x="347" y="430" fill="#1e293b" font-size="11" font-weight="500" text-anchor="middle">no_backup_db</text>
<circle cx="402" cy="394" r="7" fill="#f97316"/><text x="402" y="398" fill="#ffffff" font-size="9" font-weight="600" text-anchor="middle">2</text>
</g>
<g class="node" data-id="aws_lambda_function.no_vpc_lambda" filter="url(#shadow)">
<rect x="448" y="398" width="130" height="54" rx="6" ry="6" fill="#ffffff" stroke="#cbd5e1" stroke-width="1.5"/>
<text x="456" y="412" fill="#94a3b8" font-size="8">serverless</text>
<text x="513" y="430" fill="#1e293b" font-size="11" font-weight="500" text-anchor="middle">no_vpc_lambda</text>
<circle cx="568" cy="394" r="7" fill="#f97316"/><text x="568" y="398" fill="#ffffff" font-size="9" font-weight="600" text-anchor="middle">3</text>
</g>
<g class="node" data-id="aws_lambda_function.admin_lambda" filter="url(#shadow)">
<rect x="614" y="398" width="130" height="54" rx="6" ry="6" fill="#ffffff" stroke="#cbd5e1" stroke-width="1.5"/>
<text x="622" y="412" fill="#94a3b8" font-size="8">serverless</text>
<text x="679" y="430" fill="#1e293b" font-size="11" font-weight="500" text-anchor="middle">admin_lambda</text>
<circle cx="734" cy="394" r="7" fill="#f97316"/><text x="734" y="398" fill="#ffffff" font-size="9" font-weight="600" text-anchor="middle">3</text>
</g>
<g class="node" data-id="aws_lambda_function.no_dlq_lambda" filter="url(#shadow)">
<rect x="780" y="398" width="130" height="54" rx="6" ry="6" fill="#ffffff" stroke="#cbd5e1" stroke-width="1.5"/>
<text x="788" y="412" fill="#94a3b8" font-size="8">serverless</text>
<text x="845" y="430" fill="#1e293b" font-size="11" font-weight="500" text-anchor="middle">no_dlq_lambda</text>
<circle cx="900" cy="394" r="7" fill="#3b82f6"/><text x="900" y="398" fill="#ffffff" font-size="9" font-weight="600" text-anchor="middle">1</text>
</g>
<g class="node" data-id="aws_route_table.public_rt" filter="url(#shadow)">
<polygon points="181.0,476.0 246.0,503.0 181.0,530.0 116.0,503.0" fill="#ffffff" stroke="#cbd5e1" stroke-width="1.5"/>
<text x="124" y="490" fill="#94a3b8" font-size="8">network</text>
<text x="181" y="508" fill="#1e293b" font-size="11" font-weight="500" text-anchor="middle">public_rt</text>
</g>
<g class="node" data-id="aws_s3_bucket.unencrypted" filter="url(#shadow)">
<rect x="116" y="600" width="130" height="42" fill="#ffffff" stroke="#cbd5e1" stroke-width="1.5"/><ellipse cx="181" cy="600" rx="65.0" ry="6" fill="#ffffff" stroke="#cbd5e1" stroke-width="1.5"/><ellipse cx="181" cy="642" rx="65.0" ry="6" fill="#ffffff" stroke="#cbd5e1" stroke-width="1.5"/>
<text x="124" y="608" fill="#94a3b8" font-size="8">storage</text>
<text x="181" y="626" fill="#1e293b" font-size="11" font-weight="500" text-anchor="middle">unencrypted</text>
<circle cx="236" cy="590" r="7" fill="#f97316"/><text x="236" y="594" fill="#ffffff" font-size="9" font-weight="600" text-anchor="middle">3</text>
</g>
<g class="node" data-id="aws_s3_bucket.public_bucket" filter="url(#shadow)">
<rect x="282" y="600" width="130" height="42" fill="#ffffff" stroke="#cbd5e1" stroke-width="1.5"/><ellipse cx="347" cy="600" rx="65.0" ry="6" fill="#ffffff" stroke="#cbd5e1" stroke-width="1.5"/><ellipse cx="347" cy="642" rx="65.0" ry="6" fill="#ffffff" stroke="#cbd5e1" stroke-width="1.5"/>
<text x="290" y="608" fill="#94a3b8" font-size="8">storage</text>
<text x="347" y="626" fill="#1e293b" font-size="11" font-weight="500" text-anchor="middle">public_bucket</text>
<circle cx="402" cy="590" r="7" fill="#ef4444"/><text x="402" y="594" fill="#ffffff" font-size="9" font-weight="600" text-anchor="middle">4</text>
</g>
<g class="node" data-id="aws_s3_bucket.no_versioning" filter="url(#shadow)">
<rect x="448" y="600" width="130" height="42" fill="#ffffff" stroke="#cbd5e1" stroke-width="1.5"/><ellipse cx="513" cy="600" rx="65.0" ry="6" fill="#ffffff" stroke="#cbd5e1" stroke-width="1.5"/><ellipse cx="513" cy="642" rx="65.0" ry="6" fill="#ffffff" stroke="#cbd5e1" stroke-width="1.5"/>
<text x="456" y="608" fill="#94a3b8" font-size="8">storage</text>
<text x="513" y="626" fill="#1e293b" font-size="11" font-weight="500" text-anchor="middle">no_versioning</text>
<circle cx="568" cy="590" r="7" fill="#eab308"/><text x="568" y="594" fill="#ffffff" font-size="9" font-weight="600" text-anchor="middle">2</text>
</g>
<g class="node" data-id="aws_iam_policy.wildcard_policy" filter="url(#shadow)">
<rect x="116" y="712" width="130" height="54" fill="#ffffff" stroke="#cbd5e1" stroke-width="1.5"/><rect x="119" y="715" width="124" height="48" fill="none" stroke="#cbd5e1" stroke-width="1"/>
<text x="124" y="726" fill="#94a3b8" font-size="8">iam</text>
<text x="181" y="744" fill="#1e293b" font-size="11" font-weight="500" text-anchor="middle">wildcard_policy</text>
<circle cx="236" cy="708" r="7" fill="#ef4444"/><text x="236" y="712" fill="#ffffff" font-size="9" font-weight="600" text-anchor="middle">1</text>
</g>
<g class="node" data-id="aws_iam_user.no_mfa_user" filter="url(#shadow)">
<rect x="282" y="712" width="130" height="54" fill="#ffffff" stroke="#cbd5e1" stroke-width="1.5"/><rect x="285" y="715" width="124" height="48" fill="none" stroke="#cbd5e1" stroke-width="1"/>
<text x="290" y="726" fill="#94a3b8" font-size="8">iam</text>
<text x="347" y="744" fill="#1e293b" font-size="11" font-weight="500" text-anchor="middle">no_mfa_user</text>
<circle cx="402" cy="708" r="7" fill="#f97316"/><text x="402" y="712" fill="#ffffff" font-size="9" font-weight="600" text-anchor="middle">1</text>
</g>
<g class="node" data-id="aws_iam_role.overpermissive_role" filter="url(#shadow)">
<rect x="448" y="712" width="130" height="54" fill="#ffffff" stroke="#cbd5e1" stroke-width="1.5"/><rect x="451" y="715" width="124" height="48" fill="none" stroke="#cbd5e1" stroke-width="1"/>
<text x="456" y="726" fill="#94a3b8" font-size="8">iam</text>
<text x="513" y="744" fill="#1e293b" font-size="11" font-weight="500" text-anchor="middle">overpermissive_role</text>
<circle cx="568" cy="708" r="7" fill="#f97316"/><text x="568" y="712" fill="#ffffff" font-size="9" font-weight="600" text-anchor="middle">1</text>
</g>
<g class="legend"><rect x="0" y="830" width="986" height="56" fill="#f8fafc"/><line x1="0" y1="830" x2="986" y2="830" stroke="#e2e8f0" stroke-width="1"/><text x="16" y="850" fill="#3b82f6" font-size="9" font-weight="500">◇ data_flow</text><text x="106" y="850" fill="#64748b" font-size="9" font-weight="500">╭╮ process</text><text x="196" y="850" fill="#22c55e" font-size="9" font-weight="500">┃┃ data_store</text><text x="286" y="850" fill="#f97316" font-size="9" font-weight="500">┌┐ entity</text><circle cx="20" cy="867" r="4" fill="#ef4444"/><text x="28" y="870" fill="#64748b" font-size="9">critical</text><circle cx="92" cy="867" r="4" fill="#f97316"/><text x="100" y="870" fill="#64748b" font-size="9">high</text><circle cx="164" cy="867" r="4" fill="#eab308"/><text x="172" y="870" fill="#64748b" font-size="9">medium</text><circle cx="236" cy="867" r="4" fill="#3b82f6"/><text x="244" y="870" fill="#64748b" font-size="9">low</text><text x="970" y="850" fill="#cbd5e1" font-size="9" text-anchor="end">Generated by ThreatCode</text></g>
</svg>